<svg width="167" height="168" viewBox="0 0 167 168" fill="none" xmlns="http://www.w3.org/2000/svg">
  <path
    d="M166.5 91.0001C166.5 91.0001 170.01 115.123 133.5 131C116.238 134.334 105.7 131.966 89 122L89.0003 163.5C86.5122 169.21 80.2196 169.103 78.0003 163.5V131.5C21.8379 122.417 20.8873 45.9364 78.0003 38.0001V5.00006C81.8258 -0.954605 85.9601 0.0520844 89.0003 5.00006V47.0001C99.2692 40.839 106.999 36.2321 119.5 37.0001C130.052 36.834 131.105 43.0533 124 49.0001C110.676 60.7937 109.218 68.5955 116.5 87.0001C129.564 98.8246 143.087 99.8599 155.5 88.5001C160.609 83.208 164.426 83.6008 166.5 91.0001ZM78.0003 57.9943L78.0003 109.994C81.3455 115.637 86.7902 114.252 89.0003 109.994C89.0003 109.994 88.9086 78.6495 89.0003 57.9943C86.3511 53.6722 81.4254 53.0314 78.0003 57.9943Z"
    fill="white" />
  <path
    d="M25.8154 90H3.81542C-1.13954 85.5021 -1.4021 82.1079 3.81542 79H25.8154C31.0165 82.0817 31.0938 86.0355 25.8154 90Z"
    fill="white" />
  <path
    d="M39.2464 47.037L23.6968 31.4739C23.3765 24.7896 25.5921 22.2048 31.4784 23.6991L47.028 39.2622C48.524 45.1197 45.7817 47.9689 39.2464 47.037Z"
    fill="white" />
  <path
    d="M23.8349 135.878L39.7057 120.642C46.3951 120.456 48.9351 122.722 47.3234 128.578L31.4526 143.813C25.5664 145.192 22.7725 142.393 23.8349 135.878Z"
    fill="white" />
</svg>