<svg width="209" height="199" viewBox="0 0 209 199" fill="none" xmlns="http://www.w3.org/2000/svg">
  <path
    d="M135.5 0C135.5 0 121 13 105 13.5C89 14 73 0 73 0C73 0 59.4999 4 52.4999 8.5C45.4999 13 34 22.5 34 22.5C34 22.5 38.5 39.5 31 55.5C23.5 71.5 1.99992 77.5 1.99992 77.5C0.829313 91.6557 0.273407 101.858 1.4999 121C29.4806 133.129 38 146 34.9998 176C47.7593 188.915 59.4042 193.97 73.9999 198.5C92 182 115.5 181.5 135.5 199C151.551 193.36 163.017 187.961 174 175.5C169.5 145.5 184 130 206.5 122C209.068 105.411 208.503 92.5899 206 76C206 76 189 72.5 179.5 58C170 43.5 174.5 22 174.5 22C174.5 22 158.5 9.5 154.5 7.5C150.5 5.5 135.5 0 135.5 0ZM168.5 99.5C168.5 134 138 167.5 105 167.5C73.9999 167.5 41 140.5 41 99.5C41 67 68.5 34.5 105 34.5C141.5 34.5 168.5 71 168.5 99.5Z"
    fill="black" />
  <path
    d="M100 83.4838C98.6129 71.862 94.6962 67.5768 85.0909 63.3998V55.2684C83.6944 50.3037 75.8938 48.8943 73.9091 55.2682V63.3998C63.1209 68.0287 59.8389 73.3221 59 83.4838C59.9271 93.3457 63.0148 98.3214 73.9091 103.433L73.9091 142.84C74.5303 149.72 84.4697 149.72 84.9411 142.84L85.0909 103.433C95.2036 98.606 98.6447 94.3543 100 83.4838ZM79.5 92.1733C74.9767 92.1733 70.3689 87.8584 70.5845 83.4838C70.8861 77.3632 75.7727 74.659 79.5 74.659C83.8926 74.659 88.1729 78.0497 88.197 83.4838C88.2211 88.918 83.2366 92.1733 79.5 92.1733Z"
    fill="black" />
  <path
    d="M149 115.516C147.613 127.138 143.696 131.423 134.091 135.6V143.732C132.694 148.696 124.894 150.106 122.909 143.732V135.6C112.121 130.971 108.839 125.678 108 115.516C108.927 105.654 112.015 100.679 122.909 95.5675L122.909 56.1603C123.53 49.2799 133.47 49.2799 133.941 56.1603L134.091 95.5675C144.204 100.394 147.645 104.646 149 115.516ZM128.5 106.827C123.977 106.827 119.369 111.142 119.585 115.516C119.886 121.637 124.773 124.341 128.5 124.341C132.893 124.341 137.173 120.95 137.197 115.516C137.221 110.082 132.237 106.827 128.5 106.827Z"
    fill="black" />
</svg>