<svg xmlns="http://www.w3.org/2000/svg" style="display: none;">

  <symbol id="icon-amazon-web-services" viewBox="0 0 128 128" height="72px" width="72px">
    <path fill="#252f3e"
      d="M36.379 53.64c0 1.56.168 2.825.465 3.75.336.926.758 1.938 1.347 3.032.207.336.293.672.293.969 0 .418-.254.84-.8 1.261l-2.653 1.77c-.379.25-.758.379-1.093.379-.422 0-.844-.211-1.266-.59a13.28 13.28 0 0 1-1.516-1.98 34.153 34.153 0 0 1-1.304-2.485c-3.282 3.875-7.41 5.813-12.38 5.813-3.535 0-6.355-1.012-8.421-3.032-2.063-2.023-3.114-4.718-3.114-8.086 0-3.578 1.262-6.484 3.833-8.671 2.566-2.192 5.976-3.286 10.316-3.286 1.43 0 2.902.125 4.46.336 1.56.211 3.161.547 4.845.926v-3.074c0-3.2-.676-5.43-1.98-6.734C26.061 32.633 23.788 32 20.546 32c-1.473 0-2.988.168-4.547.547a33.416 33.416 0 0 0-4.547 1.433c-.676.293-1.18.461-1.473.547-.296.082-.507.125-.675.125-.59 0-.883-.422-.883-1.304v-2.063c0-.676.082-1.18.293-1.476.21-.293.59-.586 1.18-.883 1.472-.758 3.242-1.39 5.304-1.895 2.063-.547 4.254-.8 6.57-.8 5.008 0 8.672 1.136 11.032 3.41 2.316 2.273 3.492 5.726 3.492 10.359v13.64Zm-17.094 6.403c1.387 0 2.82-.254 4.336-.758 1.516-.508 2.863-1.433 4-2.695.672-.8 1.18-1.684 1.43-2.695.254-1.012.422-2.23.422-3.665v-1.765a34.401 34.401 0 0 0-3.871-.719 31.816 31.816 0 0 0-3.961-.25c-2.82 0-4.883.547-6.274 1.684-1.387 1.136-2.062 2.734-2.062 4.84 0 1.98.504 3.453 1.558 4.464 1.012 1.051 2.485 1.559 4.422 1.559Zm33.809 4.547c-.758 0-1.262-.125-1.598-.422-.34-.254-.633-.84-.887-1.64L40.715 29.98c-.25-.843-.38-1.39-.38-1.687 0-.672.337-1.05 1.013-1.05h4.125c.8 0 1.347.124 1.644.421.336.25.59.84.84 1.64l7.074 27.876 6.57-27.875c.208-.84.462-1.39.797-1.64.34-.255.93-.423 1.688-.423h3.367c.8 0 1.348.125 1.684.422.336.25.633.84.8 1.64l6.653 28.212 7.285-28.211c.25-.84.547-1.39.84-1.64.336-.255.887-.423 1.644-.423h3.914c.676 0 1.055.336 1.055 1.051 0 .21-.043.422-.086.676-.043.254-.125.59-.293 1.05L80.801 62.57c-.254.84-.547 1.387-.887 1.64-.336.255-.883.423-1.598.423h-3.62c-.801 0-1.348-.13-1.684-.422-.34-.297-.633-.844-.801-1.684l-6.527-27.16-6.485 27.117c-.21.844-.46 1.391-.8 1.684-.337.297-.926.422-1.684.422Zm54.105 1.137c-2.187 0-4.379-.254-6.484-.758-2.106-.504-3.746-1.055-4.84-1.684-.676-.379-1.137-.8-1.305-1.18a2.919 2.919 0 0 1-.254-1.18v-2.148c0-.882.336-1.304.97-1.304.25 0 .503.043.757.129.25.082.629.25 1.05.418a23.102 23.102 0 0 0 4.634 1.476c1.683.336 3.324.504 5.011.504 2.653 0 4.715-.465 6.145-1.39 1.433-.926 2.191-2.274 2.191-4 0-1.18-.379-2.145-1.136-2.946-.758-.8-2.192-1.516-4.254-2.191l-6.106-1.895c-3.074-.969-5.348-2.398-6.734-4.293-1.39-1.855-2.106-3.918-2.106-6.105 0-1.77.38-3.328 1.137-4.676a10.829 10.829 0 0 1 3.031-3.453c1.262-.965 2.696-1.684 4.38-2.188 1.683-.504 3.452-.715 5.304-.715.926 0 1.894.043 2.82.168.969.125 1.852.293 2.738.461.84.211 1.641.422 2.399.676.758.254 1.348.504 1.77.758.59.336 1.011.672 1.261 1.05.254.34.379.802.379 1.391v1.98c0 .884-.336 1.348-.969 1.348-.336 0-.883-.171-1.597-.507-2.403-1.094-5.098-1.641-8.086-1.641-2.399 0-4.293.379-5.598 1.18-1.309.797-1.98 2.02-1.98 3.746 0 1.18.421 2.191 1.261 2.988.844.8 2.403 1.602 4.633 2.316l5.98 1.895c3.032.969 5.22 2.316 6.524 4.043 1.305 1.727 1.938 3.707 1.938 5.895 0 1.812-.38 3.453-1.094 4.882-.758 1.434-1.77 2.696-3.074 3.707-1.305 1.051-2.864 1.809-4.672 2.36-1.895.586-3.875.883-6.024.883Zm0 0" />
    <path fill="#f90"
      d="M118 73.348c-4.432.063-9.664 1.052-13.621 3.832-1.223.883-1.012 2.062.336 1.894 4.508-.547 14.44-1.726 16.21.547 1.77 2.23-1.976 11.62-3.663 15.79-.504 1.26.59 1.769 1.726.8 7.41-6.231 9.348-19.242 7.832-21.137-.757-.925-4.388-1.79-8.82-1.726zM1.63 75.859c-.927.116-1.347 1.236-.368 2.121 16.508 14.902 38.359 23.872 62.613 23.872 17.305 0 37.43-5.43 51.281-15.66 2.273-1.688.297-4.254-2.02-3.204-15.534 6.57-32.421 9.77-47.788 9.77-22.778 0-44.8-6.273-62.653-16.633-.39-.231-.755-.304-1.064-.266z" />
  </symbol>

  <symbol id="icon-android" viewBox="0 0 128 128" height="72px" width="72px">
    <path
      d="M21.012 91.125c-5.538.003-10.038-4.503-10.039-10.04l-.002-30.739c-.002-5.532 4.497-10.037 10.028-10.038 2.689-.002 5.207 1.041 7.105 2.937s2.942 4.418 2.944 7.099l-.003 30.74a9.924 9.924 0 01-2.931 7.094 9.962 9.962 0 01-7.102 2.947m-.008-48.12c-4.053-.002-7.338 3.291-7.339 7.341l.005 30.736a7.347 7.347 0 007.341 7.348 7.338 7.338 0 007.339-7.347V50.342a7.345 7.345 0 00-7.346-7.337" />
    <path
      d="M99.742 44.527l-2.698-.001-66.119.009-2.699.001-.002-2.699c-.006-11.08 6.03-21.385 15.917-27.473l-3.844-7.017c-.47-.822-.588-1.863-.314-2.815a3.732 3.732 0 011.814-2.239 3.605 3.605 0 011.759-.447c1.362 0 2.609.739 3.267 1.933l4.023 7.329a37.842 37.842 0 0113.099-2.305c4.606-.002 9.023.777 13.204 2.311l4.017-7.341a3.711 3.711 0 013.263-1.932 3.712 3.712 0 011.761.438A3.706 3.706 0 0188 4.524a3.69 3.69 0 01-.318 2.832l-3.842 7.013c9.871 6.101 15.9 16.398 15.899 27.459l.003 2.699zM80.196 15.403l5.123-9.355a1.019 1.019 0 10-1.783-.981l-5.176 9.45c-4.354-1.934-9.229-3.021-14.382-3.016-5.142-.005-10.008 1.078-14.349 3.005l-5.181-9.429a1.009 1.009 0 00-1.379-.405c-.497.266-.68.891-.403 1.379l5.125 9.348c-10.07 5.194-16.874 15.084-16.868 26.439l66.118-.008c.003-11.351-6.789-21.221-16.845-26.427M48.94 29.86a2.772 2.772 0 01.003-5.545 2.78 2.78 0 012.775 2.774 2.775 2.775 0 01-2.778 2.771m30.107-.006a2.767 2.767 0 01-2.772-2.771 2.788 2.788 0 012.773-2.778 2.79 2.79 0 012.767 2.779 2.769 2.769 0 01-2.768 2.77m-27.336 96.305c-5.533-.001-10.036-4.501-10.037-10.038l-.002-13.567-2.638.003a10.453 10.453 0 01-7.448-3.082 10.437 10.437 0 01-3.083-7.452l-.01-47.627v-2.701h2.699l65.623-.01 2.7-.002v2.699l.007 47.633c.001 5.809-4.725 10.536-10.532 10.535l-2.654.002.003 13.562c0 5.534-4.502 10.039-10.033 10.039a9.933 9.933 0 01-7.098-2.937 9.952 9.952 0 01-2.947-7.096v-13.568H61.75v13.565c-.002 5.535-4.503 10.043-10.039 10.042" />
    <path
      d="M31.205 92.022a7.82 7.82 0 007.831 7.837h5.333l.006 16.264c-.001 4.05 3.289 7.341 7.335 7.342a7.342 7.342 0 007.338-7.348l.001-16.259 9.909-.003-.001 16.263c.004 4.051 3.298 7.346 7.343 7.338 4.056.003 7.344-3.292 7.343-7.344l-.005-16.259 5.353-.001c4.319.001 7.832-3.508 7.832-7.837l-.009-47.635-65.621.012.012 47.63zm75.791-.91c-5.536.001-10.039-4.498-10.038-10.036l-.008-30.738c.002-5.537 4.498-10.041 10.031-10.041 5.54-.001 10.046 4.502 10.045 10.038l.003 30.736c.001 5.534-4.498 10.042-10.033 10.041m-.01-48.116c-4.053-.004-7.337 3.287-7.337 7.342l.003 30.737a7.336 7.336 0 007.342 7.34 7.338 7.338 0 007.338-7.343l-.008-30.736a7.335 7.335 0 00-7.338-7.34" />
    <path fill="#A4C439"
      d="M21.004 43.005c-4.053-.002-7.338 3.291-7.339 7.341l.005 30.736a7.338 7.338 0 007.342 7.343 7.33 7.33 0 007.338-7.342V50.342a7.345 7.345 0 00-7.346-7.337m59.192-27.602l5.123-9.355a1.023 1.023 0 00-.401-1.388 1.022 1.022 0 00-1.382.407l-5.175 9.453c-4.354-1.938-9.227-3.024-14.383-3.019-5.142-.005-10.013 1.078-14.349 3.005l-5.181-9.429a1.01 1.01 0 00-1.378-.406 1.007 1.007 0 00-.404 1.38l5.125 9.349c-10.07 5.193-16.874 15.083-16.868 26.438l66.118-.008c.003-11.351-6.789-21.221-16.845-26.427M48.94 29.86a2.772 2.772 0 01.003-5.545 2.78 2.78 0 012.775 2.774 2.775 2.775 0 01-2.778 2.771m30.107-.006a2.77 2.77 0 01-2.772-2.771 2.793 2.793 0 012.773-2.778 2.79 2.79 0 012.767 2.779 2.767 2.767 0 01-2.768 2.77M31.193 44.392l.011 47.635a7.822 7.822 0 007.832 7.831l5.333.002.006 16.264c-.001 4.05 3.291 7.342 7.335 7.342 4.056 0 7.342-3.295 7.343-7.347l-.004-16.26 9.909-.003.004 16.263c0 4.047 3.293 7.346 7.338 7.338 4.056.003 7.344-3.292 7.343-7.344l-.005-16.259 5.352-.004a7.835 7.835 0 007.836-7.834l-.009-47.635-65.624.011zm83.134 5.943a7.338 7.338 0 00-7.341-7.339c-4.053-.004-7.337 3.287-7.337 7.342l.006 30.738a7.334 7.334 0 007.339 7.339 7.337 7.337 0 007.338-7.343l-.005-30.737z" />
  </symbol>

  <symbol id="icon-arduino" viewBox="0 0 128 128" height="72px" width="72px">
    <g fill="#00979C" fill-rule="evenodd">
      <path
        d="M.316 55.504v-9.555c.223-.125.164-.355.207-.547C3.531 32.316 11.734 24.45 24.668 21.31c1.133-.274 2.32-.247 3.422-.653h6.37c.145.274.415.164.63.188 6.422.687 12.203 2.957 17.316 6.914 4.364 3.37 7.84 7.547 10.938 12.058.383.559.566.575.953.004 1.773-2.61 3.707-5.097 5.86-7.41 5.35-5.738 11.706-9.695 19.511-11.144 1.172-.22 2.383-.207 3.52-.61h6.19c.13.23.36.157.556.18 1.843.207 3.664.547 5.453 1.062 13.449 3.864 22.933 16.184 22.136 30.133-.668 11.645-6.562 20.032-16.78 25.418-5.157 2.719-10.75 3.489-16.524 3.375-7.625-.148-14.254-2.77-19.969-7.773-3.965-3.469-7.082-7.64-9.945-12.016-.426-.652-.59-.57-.973.02-1.812 2.789-3.758 5.492-5.96 8-3.868 4.406-8.337 8-13.93 9.96-6.915 2.422-13.965 2.516-20.954.54C12.414 76.707 5.468 70.3 1.723 60.48c-.618-1.617-.875-3.335-1.407-4.976zm31.79 14.684c5.734.238 10.62-1.688 14.765-5.543 4.324-4.024 7.383-9.004 10.488-13.946.188-.297.13-.531-.05-.808-2.645-4.121-5.356-8.203-8.934-11.602-6.883-6.543-14.992-8.742-24.04-5.852C16.778 34.855 12 40.234 10.884 48.22c-1.043 7.445 1.855 13.457 7.812 17.941 3.965 2.988 8.532 4.164 13.41 4.028zm63.347 0c2.246.058 4.457-.09 6.59-.731 7.82-2.332 13.105-7.293 14.578-15.43 1.469-8.105-1.668-14.593-8.39-19.226-7.493-5.168-18.415-4.66-26.055 1.023-5.074 3.774-8.524 8.91-11.875 14.133-.196.3-.145.531.027.805 2.688 4.3 5.379 8.597 8.863 12.324 4.407 4.715 9.704 7.394 16.262 7.102zm32.227 29.007c-.297.942-.535 1.903-.895 2.82-2.234 5.68-10.222 7.204-14.055 2.684-1.304-1.539-1.878-3.386-2.097-5.347-.305-2.743-.297-5.465.734-8.098 1.457-3.695 4.61-5.613 8.754-5.3 3.777.284 6.29 2.538 7.188 6.433.117.5.058 1.047.37 1.5zm-12.618-2.61c.004 1.509.086 3.009.622 4.438.406 1.106 1.086 1.942 2.293 2.254 2.156.559 3.925-.328 4.582-2.472.843-2.77.804-5.59.007-8.364-.515-1.808-1.605-2.601-3.316-2.632-1.828-.036-2.96.746-3.617 2.507-.512 1.38-.563 2.825-.57 4.27zm-17.753-3.14v12.278c0 1.21 0 1.21-1.254 1.21-.618 0-1.239-.042-1.856.012-.691.063-.906-.18-.898-.882.031-3.626.015-7.25.015-10.876 0-2.71.02-5.421-.011-8.132-.008-.618.168-.817.789-.793 1.207.047 2.418.05 3.625-.004.601-.024.883.191 1.125.719 1.886 4.09 3.8 8.164 5.71 12.242.048.097.114.191.31.515V98.68c0-3.86.015-7.72-.016-11.578-.004-.649.144-.891.824-.84.851.062 1.707.035 2.562.008.48-.02.672.117.672.636a4570.62 4570.62 0 000 19.364c0 .488-.144.68-.652.671a90.154 90.154 0 00-3.98.004c-.544.016-.684-.316-.864-.703a3437.438 3437.438 0 00-5.64-12.176c-.094-.199-.106-.464-.461-.62zm-65.496 3.7c1.515 1.218 2.117 2.906 2.914 4.472.77 1.52 1.5 3.063 2.273 4.582.262.52.313.774-.426.746a58.648 58.648 0 00-3.707 0c-.5.016-.722-.191-.914-.625-.863-1.965-1.765-3.914-2.648-5.87-.485-1.075-1.254-1.731-2.461-1.9-.715-.097-.903.13-.89.837.042 2.238-.009 4.476.03 6.715.012.656-.16.886-.832.847-.941-.058-1.886-.035-2.828-.008-.5.012-.746-.101-.746-.675.02-6.454.012-12.903.016-19.356 0-.281-.074-.644.39-.629 3.145.102 6.313-.332 9.426.367 4.277.961 4.817 4.575 4.047 7.247-.504 1.753-1.86 2.71-3.645 3.25zm-5.84-4.711v2.207c0 .242-.008.492.34.492 1.203.012 2.421.097 3.539-.496 1.011-.54 1.43-1.426 1.28-2.664-.12-1.012-.679-1.641-1.804-1.895a9.13 9.13 0 00-1.926-.223c-1.77-.02-1.386-.164-1.43 1.344-.011.41 0 .824 0 1.235zm13.015 4.148c0-3.125.02-6.246-.015-9.371-.008-.703.136-.984.91-.95 2.5.102 5.012-.156 7.504.15 4.734.581 7.175 3.054 7.707 7.85.261 2.329.176 4.653-.66 6.891-1.317 3.512-4.067 5.13-7.602 5.618-2.398.328-4.824.117-7.242.171-.649.016-.602-.386-.602-.812v-9.547zm4.348-.016v4.766c0 2.04 0 2.04 2.078 1.953 2.578-.11 4.223-1.433 4.832-3.953.488-2.008.438-4.031-.062-6.027-.5-1.985-1.813-3.094-3.864-3.325-.726-.082-1.468-.054-2.199-.12-.621-.06-.809.18-.797.796.035 1.969.012 3.942.012 5.91zm-25.84 10.375c-2.367 0-2.367 0-3.004-2.238-.508-1.781-.508-1.781-2.363-1.781-1.477 0-2.95.027-4.422-.012-.547-.015-.777.168-.906.692-.223.914-.563 1.8-.785 2.714-.125.508-.383.649-.871.633a40.27 40.27 0 00-2.915 0c-.66.028-.722-.183-.542-.77 1.472-4.75 2.917-9.507 4.37-14.265.5-1.629 1.024-3.254 1.493-4.894.148-.528.351-.774.949-.754 1.504.046 3.008.03 4.508.007.46-.007.664.141.8.594a5006.596 5006.596 0 005.93 19.324c.176.57.09.813-.562.758-.555-.047-1.117-.008-1.68-.008zm-6.867-15.66l-.184.012c-.777 2.672-1.558 5.34-2.336 8.012.137.039.192.07.25.07.942.008 1.883.016 2.825.016 1.804.004 1.808 0 1.312-1.7-.621-2.136-1.246-4.277-1.867-6.41zm46.445 2.684c0-2.328.012-4.656-.011-6.988-.004-.516.12-.739.683-.711.973.043 1.95.05 2.918-.004.652-.035.777.23.773.816-.019 3.922-.011 7.844-.003 11.766 0 .676.02 1.355.09 2.027.187 1.848 1.28 2.781 3.288 2.84 2.012.062 3.149-.809 3.422-2.672a14.01 14.01 0 00.141-2.023c.016-3.922.023-7.844-.012-11.762-.004-.738.125-1.07.953-.996.907.082 1.829.039 2.739.012.48-.016.683.113.68.632-.032 4.48.046 8.965-.083 13.442-.109 3.89-2.644 6.41-6.543 6.844-1.664.187-3.3.093-4.89-.434-2.551-.852-4.008-2.902-4.106-5.895-.07-2.296-.011-4.597-.011-6.894zm25.895-7.688c2.035 0 4.066.02 6.101-.015.575-.008.785.16.746.746a17.403 17.403 0 000 2.117c.036.563-.191.707-.714.691-1.063-.035-2.122.008-3.184-.02-.496-.015-.734.083-.734.665.023 4.066.02 8.133.004 12.2-.004.542.167.726.707.706 1.058-.027 2.12.024 3.18-.02.6-.019.769.212.741.774-.039.734-.03 1.473-.004 2.207.02.473-.175.61-.62.61-4.126-.012-8.25-.012-12.38 0-.492.003-.69-.153-.671-.657a27.82 27.82 0 00-.004-2.21c-.024-.532.152-.735.703-.72 1.09.032 2.18-.007 3.27.012.5.012.66-.175.656-.672-.012-4.093-.012-8.191 0-12.289 0-.46-.164-.613-.618-.605-1.09.023-2.183-.024-3.27.02-.597.023-.788-.196-.737-.762.086-.899-.375-2.043.199-2.633.5-.512 1.625-.129 2.476-.145 1.38-.015 2.77 0 4.153 0zm41.883-61.8c-.133.199-.18.265-.223.332-.242.363-.055 1.097-.664 1.086-.54-.012-.403-.684-.594-1.051-.05-.098-.11-.188-.277-.461 0 .504.008.789 0 1.078-.008.195.035.441-.274.457-.312.016-.293-.234-.297-.43-.007-.68-.007-1.355-.003-2.031 0-.23-.036-.496.324-.504.27-.004.504-.015.617.336.144.43.195.91.527 1.324.317-.402.371-.867.492-1.293.102-.347.317-.37.598-.37.356.003.34.253.344.488.004.68.004 1.355-.004 2.035-.004.191.023.445-.281.449-.305 0-.282-.242-.285-.442-.008-.289 0-.574 0-1.003zm-3.712-1.532c.087 0 .18-.015.262 0 .325.063.828-.187.934.2.144.543-.426.27-.668.386-.242.117-.195.332-.2.528-.011.468-.007.937-.007 1.406 0 .258-.05.473-.383.46-.305-.01-.293-.234-.293-.437a36.975 36.975 0 01-.004-1.316c.012-.375.016-.727-.523-.676-.188.016-.352-.039-.352-.277 0-.328.254-.262.442-.27.265-.012.527-.004.793-.004zm0 0" />
      <path
        d="M31.977 47.543c3.238 0 6.48.023 9.718-.02.758-.011.953.223.907.942a19.358 19.358 0 000 2.734c.054.758-.149 1.004-.954.996-4.3-.043-8.601-.023-12.898-.023-2.18 0-4.36-.031-6.535.02-.762.019-.957-.235-.914-.95.058-.937.05-1.887 0-2.828-.035-.676.16-.898.87-.89 3.267.042 6.54.019 9.806.019zm63.039-6.414c.765 0 1.535.023 2.3-.008.5-.02.66.156.653.66-.028 1.414.02 2.828-.024 4.242-.023.641.133.875.82.848 1.383-.055 2.77.004 4.153-.023.535-.012.812.093.797.715a112.75 112.75 0 00-.004 4.597c.012.555-.2.7-.727.692-1.414-.032-2.828.015-4.242-.024-.601-.02-.82.133-.8.774.046 1.414-.008 2.828.027 4.242.015.593-.13.836-.774.816a91.282 91.282 0 00-4.507-.004c-.583.016-.762-.172-.747-.754.04-1.472-.007-2.945.024-4.418.008-.5-.145-.664-.649-.652-1.414.027-2.832-.031-4.242.027-.726.028-.894-.234-.879-.906.043-1.383.067-2.77-.004-4.152-.043-.817.262-.992 1.012-.961 1.356.058 2.711-.008 4.067.027.539.016.71-.148.695-.699-.035-1.41.015-2.828-.024-4.242-.015-.598.133-.852.774-.809.765.051 1.531.012 2.3.012zm0 0" />
    </g>
  </symbol>

  <symbol id="icon-azure-devops" viewBox="0 0 128 128" height="72px" width="72px">
    <defs>
      <linearGradient id="a" gradientUnits="userSpaceOnUse" x1="9" y1="16.97" x2="9" y2="1.03"
        gradientTransform="scale(7.11111)">
        <stop offset="0" stop-color="#0078d4" />
        <stop offset=".16" stop-color="#1380da" />
        <stop offset=".53" stop-color="#3c91e5" />
        <stop offset=".82" stop-color="#559cec" />
        <stop offset="1" stop-color="#5ea0ef" />
      </linearGradient>
    </defs>
    <path fill="url(#a)"
      d="M120.89 28.445v69.262l-28.445 23.324-44.09-16.07v15.93L23.395 88.25l72.746 5.688V31.574ZM96.64 31.93 55.82 7.11v16.285L18.348 34.418 7.109 48.852v32.785l16.075 7.11V46.718Zm0 0" />
  </symbol>

  <symbol id="icon-bash" viewBox="0 0 128 128" height="72px" width="72px">
    <path fill="none" d="M4.24 4.24h119.53v119.53H4.24z" />
    <path fill="#293138"
      d="M109.01 28.64L71.28 6.24c-2.25-1.33-4.77-2-7.28-2s-5.03.67-7.28 2.01l-37.74 22.4c-4.5 2.67-7.28 7.61-7.28 12.96v44.8c0 5.35 2.77 10.29 7.28 12.96l37.73 22.4c2.25 1.34 4.76 2 7.28 2 2.51 0 5.03-.67 7.28-2l37.74-22.4c4.5-2.67 7.28-7.62 7.28-12.96V41.6c0-5.34-2.77-10.29-7.28-12.96zM79.79 98.59l.06 3.22c0 .39-.25.83-.55.99l-1.91 1.1c-.3.15-.56-.03-.56-.42l-.03-3.17c-1.63.68-3.29.84-4.34.42-.2-.08-.29-.37-.21-.71l.69-2.91c.06-.23.18-.46.34-.6.06-.06.12-.1.18-.13.11-.06.22-.07.31-.03 1.14.38 2.59.2 3.99-.5 1.78-.9 2.97-2.72 2.95-4.52-.02-1.64-.9-2.31-3.05-2.33-2.74.01-5.3-.53-5.34-4.57-.03-3.32 1.69-6.78 4.43-8.96l-.03-3.25c0-.4.24-.84.55-1l1.85-1.18c.3-.15.56.04.56.43l.03 3.25c1.36-.54 2.54-.69 3.61-.44.23.06.34.38.24.75l-.72 2.88c-.06.22-.18.44-.33.58a.77.77 0 01-.19.14c-.1.05-.19.06-.28.05-.49-.11-1.65-.36-3.48.56-1.92.97-2.59 2.64-2.58 3.88.02 1.48.77 1.93 3.39 1.97 3.49.06 4.99 1.58 5.03 5.09.05 3.44-1.79 7.15-4.61 9.41zm26.34-60.5l-35.7 22.05c-4.45 2.6-7.73 5.52-7.74 10.89v43.99c0 3.21 1.3 5.29 3.29 5.9-.65.11-1.32.19-1.98.19-2.09 0-4.15-.57-5.96-1.64l-37.73-22.4c-3.69-2.19-5.98-6.28-5.98-10.67V41.6c0-4.39 2.29-8.48 5.98-10.67l37.74-22.4c1.81-1.07 3.87-1.64 5.96-1.64s4.15.57 5.96 1.64l37.74 22.4c3.11 1.85 5.21 5.04 5.8 8.63-1.27-2.67-4.09-3.39-7.38-1.47z" />
    <path fill="#4FA847"
      d="M99.12 90.73l-9.4 5.62c-.25.15-.43.31-.43.61v2.46c0 .3.2.43.45.28l9.54-5.8c.25-.15.29-.42.29-.72v-2.17c0-.3-.2-.42-.45-.28z" />
  </symbol>

  <symbol id="icon-css3" viewBox="0 0 128 128" height="72px" width="72px">
    <path fill="#1572B6" d="M18.814 114.123L8.76 1.352h110.48l-10.064 112.754-45.243 12.543-45.119-12.526z" />
    <path fill="#33A9DC" d="M64.001 117.062l36.559-10.136 8.601-96.354h-45.16v106.49z" />
    <path fill="#fff"
      d="M64.001 51.429h18.302l1.264-14.163H64.001V23.435h34.682l-.332 3.711-3.4 38.114h-30.95V51.429z" />
    <path fill="#EBEBEB"
      d="M64.083 87.349l-.061.018-15.403-4.159-.985-11.031H33.752l1.937 21.717 28.331 7.863.063-.018v-14.39z" />
    <path fill="#fff" d="M81.127 64.675l-1.666 18.522-15.426 4.164v14.39l28.354-7.858.208-2.337 2.406-26.881H81.127z" />
    <path fill="#EBEBEB"
      d="M64.048 23.435v13.831H30.64l-.277-3.108-.63-7.012-.331-3.711h34.646zm-.047 27.996v13.831H48.792l-.277-3.108-.631-7.012-.33-3.711h16.447z" />
  </symbol>

  <symbol id="icon-docker" viewBox="0 0 128 128" height="72px" width="72px">
    <path fill-rule="evenodd" clip-rule="evenodd" fill="#3A4D54"
      d="M73.8 50.8h11.3v11.5h5.7c2.6 0 5.3-.5 7.8-1.3 1.2-.4 2.6-1 3.8-1.7-1.6-2.1-2.4-4.7-2.6-7.3-.3-3.5.4-8.1 2.8-10.8l1.2-1.4 1.4 1.1c3.6 2.9 6.5 6.8 7.1 11.4 4.3-1.3 9.3-1 13.1 1.2l1.5.9-.8 1.6c-3.2 6.2-9.9 8.2-16.4 7.8-9.8 24.3-31 35.8-56.8 35.8-13.3 0-25.5-5-32.5-16.8l-.1-.2-1-2.1c-2.4-5.2-3.1-10.9-2.6-16.6l.2-1.7h9.6V50.8h11.3V39.6h22.5V28.3h13.5v22.5z" />
    <path fill="#00AADA"
      d="M110.4 55.1c.8-5.9-3.6-10.5-6.4-12.7-3.1 3.6-3.6 13.2 1.3 17.2-2.8 2.4-8.5 4.7-14.5 4.7H18.6c-.6 6.2.5 11.9 3 16.8l.8 1.5c.5.9 1.1 1.7 1.7 2.6 3 .2 5.7.3 8.2.2 4.9-.1 8.9-.7 12-1.7.5-.2.9.1 1.1.5.2.5-.1.9-.5 1.1-.4.1-.8.3-1.3.4-2.4.7-5 1.1-8.3 1.3h-.6c-1.3.1-2.7.1-4.2.1-1.6 0-3.1 0-4.9-.1 6 6.8 15.4 10.8 27.2 10.8 25 0 46.2-11.1 55.5-35.9 6.7.7 13.1-1 16-6.7-4.5-2.7-10.5-1.8-13.9-.1z" />
    <path fill="#28B8EB"
      d="M110.4 55.1c.8-5.9-3.6-10.5-6.4-12.7-3.1 3.6-3.6 13.2 1.3 17.2-2.8 2.4-8.5 4.7-14.5 4.7h-68c-.3 9.5 3.2 16.7 9.5 21 4.9-.1 8.9-.7 12-1.7.5-.2.9.1 1.1.5.2.5-.1.9-.5 1.1-.4.1-.8.3-1.3.4-2.4.7-5.2 1.2-8.5 1.4l-.1-.1c8.5 4.4 20.8 4.3 35-1.1 15.8-6.1 30.6-17.7 40.9-30.9-.2.1-.4.1-.5.2z" />
    <path fill="#028BB8"
      d="M18.7 71.8c.4 3.3 1.4 6.4 2.9 9.3l.8 1.5c.5.9 1.1 1.7 1.7 2.6 3 .2 5.7.3 8.2.2 4.9-.1 8.9-.7 12-1.7.5-.2.9.1 1.1.5.2.5-.1.9-.5 1.1-.4.1-.8.3-1.3.4-2.4.7-5.2 1.2-8.5 1.4h-.4c-1.3.1-2.7.1-4.1.1-1.6 0-3.2 0-4.9-.1 6 6.8 15.5 10.8 27.3 10.8 21.4 0 40-8.1 50.8-26H18.7v-.1z" />
    <path fill="#019BC6"
      d="M23.5 71.8c1.3 5.8 4.3 10.4 8.8 13.5 4.9-.1 8.9-.7 12-1.7.5-.2.9.1 1.1.5.2.5-.1.9-.5 1.1-.4.1-.8.3-1.3.4-2.4.7-5.2 1.2-8.6 1.4 8.5 4.4 20.8 4.3 34.9-1.1 8.5-3.3 16.8-8.2 24.2-14.1H23.5z" />
    <path fill-rule="evenodd" clip-rule="evenodd" fill="#00ACD3"
      d="M28.4 52.7h9.8v9.8h-9.8v-9.8zm.8.8h.8v8.1h-.8v-8.1zm1.4 0h.8v8.1h-.8v-8.1zm1.5 0h.8v8.1h-.8v-8.1zm1.5 0h.8v8.1h-.8v-8.1zm1.5 0h.8v8.1h-.8v-8.1zm1.5 0h.8v8.1h-.8v-8.1zm3-12h9.8v9.8h-9.8v-9.8zm.9.8h.8v8.1h-.8v-8.1zm1.4 0h.8v8.1h-.8v-8.1zm1.5 0h.8v8.1h-.8v-8.1zm1.5 0h.8v8.1h-.8v-8.1zm1.4 0h.8v8.1h-.8v-8.1zm1.5 0h.8v8.1h-.8v-8.1z" />
    <path fill-rule="evenodd" clip-rule="evenodd" fill="#23C2EE"
      d="M39.6 52.7h9.8v9.8h-9.8v-9.8zm.9.8h.8v8.1h-.8v-8.1zm1.4 0h.8v8.1h-.8v-8.1zm1.5 0h.8v8.1h-.8v-8.1zm1.5 0h.8v8.1h-.8v-8.1zm1.4 0h.8v8.1h-.8v-8.1zm1.5 0h.8v8.1h-.8v-8.1z" />
    <path fill-rule="evenodd" clip-rule="evenodd" fill="#00ACD3"
      d="M50.9 52.7h9.8v9.8h-9.8v-9.8zm.8.8h.8v8.1h-.8v-8.1zm1.5 0h.8v8.1h-.8v-8.1zm1.5 0h.8v8.1h-.8v-8.1zm1.4 0h.8v8.1h-.8v-8.1zm1.5 0h.8v8.1h-.8v-8.1zm1.5 0h.8v8.1h-.8v-8.1z" />
    <path fill-rule="evenodd" clip-rule="evenodd" fill="#23C2EE"
      d="M50.9 41.5h9.8v9.8h-9.8v-9.8zm.8.8h.8v8.1h-.8v-8.1zm1.5 0h.8v8.1h-.8v-8.1zm1.5 0h.8v8.1h-.8v-8.1zm1.4 0h.8v8.1h-.8v-8.1zm1.5 0h.8v8.1h-.8v-8.1zm1.5 0h.8v8.1h-.8v-8.1zm3.1 10.4H72v9.8h-9.8v-9.8zm.8.8h.8v8.1H63v-8.1zm1.5 0h.8v8.1h-.8v-8.1zm1.4 0h.8v8.1h-.8v-8.1zm1.5 0h.8v8.1h-.8v-8.1zm1.5 0h.8v8.1h-.8v-8.1zm1.5 0h.8v8.1h-.8v-8.1z" />
    <path fill-rule="evenodd" clip-rule="evenodd" fill="#00ACD3"
      d="M62.2 41.5H72v9.8h-9.8v-9.8zm.8.8h.8v8.1H63v-8.1zm1.5 0h.8v8.1h-.8v-8.1zm1.4 0h.8v8.1h-.8v-8.1zm1.5 0h.8v8.1h-.8v-8.1zm1.5 0h.8v8.1h-.8v-8.1zm1.5 0h.8v8.1h-.8v-8.1z" />
    <path fill-rule="evenodd" clip-rule="evenodd" fill="#23C2EE"
      d="M62.2 30.2H72V40h-9.8v-9.8zm.8.8h.8v8.1H63V31zm1.5 0h.8v8.1h-.8V31zm1.4 0h.8v8.1h-.8V31zm1.5 0h.8v8.1h-.8V31zm1.5 0h.8v8.1h-.8V31zm1.5 0h.8v8.1h-.8V31z" />
    <path fill-rule="evenodd" clip-rule="evenodd" fill="#00ACD3"
      d="M73.5 52.7h9.8v9.8h-9.8v-9.8zm.8.8h.8v8.1h-.8v-8.1zm1.4 0h.8v8.1h-.8v-8.1zm1.5 0h.8v8.1h-.8v-8.1zm1.5 0h.8v8.1h-.8v-8.1zm1.5 0h.8v8.1h-.8v-8.1zm1.5 0h.8v8.1h-.8v-8.1z" />
    <path fill-rule="evenodd" clip-rule="evenodd" fill="#D4EEF1"
      d="M48.8 78.3c1.5 0 2.7 1.2 2.7 2.7 0 1.5-1.2 2.7-2.7 2.7-1.5 0-2.7-1.2-2.7-2.7 0-1.5 1.2-2.7 2.7-2.7" />
    <path fill-rule="evenodd" clip-rule="evenodd" fill="#3A4D54"
      d="M48.8 79.1c.2 0 .5 0 .7.1-.2.1-.4.4-.4.7 0 .4.4.8.8.8.3 0 .6-.2.7-.4.1.2.1.5.1.7 0 1.1-.9 1.9-1.9 1.9-1.1 0-1.9-.9-1.9-1.9 0-1 .8-1.9 1.9-1.9M1.1 72.8h125.4c-2.7-.7-8.6-1.6-7.7-5.2-5 5.7-16.9 4-20 1.2-3.4 4.9-23 3-24.3-.8-4.2 5-17.3 5-21.5 0-1.4 3.8-21 5.7-24.3.8-3 2.8-15 4.5-20-1.2 1.1 3.5-4.9 4.5-7.6 5.2" />
    <path fill="#BFDBE0"
      d="M56 97.8c-6.7-3.2-10.3-7.5-12.4-12.2-2.5.7-5.5 1.2-8.9 1.4-1.3.1-2.7.1-4.1.1-1.7 0-3.4 0-5.2-.1 6 6 13.6 10.7 27.5 10.8H56z" />
    <path fill="#D4EEF1" d="M46.1 89.9c-.9-1.3-1.8-2.8-2.5-4.3-2.5.7-5.5 1.2-8.9 1.4 2.3 1.2 5.7 2.4 11.4 2.9z" />
  </symbol>

  <symbol id="icon-dotnet-core" viewBox="0 0 128 128" height="72px" width="72px">
    <g fill="#623697">
      <path
        d="M61.195 0h4.953c12.918.535 25.688 4.89 36.043 12.676 9.809 7.289 17.473 17.437 21.727 28.906 2.441 6.387 3.664 13.18 4.082 19.992v4.211c-.414 11.293-3.664 22.52-9.73 32.082-6.801 10.895-16.922 19.73-28.727 24.828A64.399 64.399 0 0165.082 128h-2.144c-11.735-.191-23.41-3.66-33.297-9.992-11.196-7.113-20.114-17.785-25.028-30.117C1.891 81.19.441 74.02 0 66.812v-4.957c.504-14.39 5.953-28.609 15.41-39.496C23.168 13.31 33.5 6.48 44.887 2.937 50.172 1.27 55.676.41 61.195 0M25.191 37.523c-.03 12.153-.011 24.305-.011 36.454 1.43.011 2.86.011 4.293.011-.075-10.433.101-20.863-.106-31.293.48.907.918 1.84 1.465 2.707C37.035 54.91 43.105 64.5 49.309 74c1.738-.023 3.476-.023 5.214.004-.003-12.16-.007-24.32.004-36.48a308.076 308.076 0 00-4.25-.012c.075 10.32-.136 20.64.125 30.949-6.507-10.352-13.101-20.645-19.695-30.945a370.85 370.85 0 00-5.516.007m38.844-.011c-.129 12.16-.004 24.32-.047 36.476 6.469-.015 12.938.024 19.41-.02a83.36 83.36 0 01.024-3.952c-5.012-.016-10.027.007-15.043-.02-.074-4.21-.004-8.426-.04-12.637 4.395-.078 8.79.012 13.18-.047-.011-1.277-.011-2.554-.019-3.832-4.387.141-8.773-.054-13.164.012.012-4.023.02-8.05.02-12.078 4.699 0 9.398-.02 14.093.012-.008-1.301 0-2.606.016-3.906-6.145-.016-12.29-.008-18.43-.008m22.602.054c.004 1.266.004 2.528.008 3.79 3.488-.04 6.972.109 10.46.035-.023 10.863.004 21.718-.011 32.574 1.46.043 2.93.035 4.39-.09-.12-5.992.118-11.988-.156-17.977.067-2.699-.07-5.394.117-8.09.106-2.14-.277-4.277-.035-6.417 3.516.047 7.035.015 10.55.015a59.774 59.774 0 01.075-3.832c-8.469-.105-16.937-.094-25.398-.008M13.55 69.094c-1.977.91-2.106 4.023-.149 5.027 1.72 1.18 4.305-.371 4.227-2.41.133-2.004-2.29-3.688-4.078-2.617m29.23 15.289c-4.277 3.469-4.226 11.195.5 14.25 2.668 1.695 6.102 1.344 8.922.215.012-.621.027-1.239.05-1.86-2.671 1.395-6.41 1.68-8.675-.61-2.965-3.237-2.297-9.269 1.613-11.476 2.211-1.164 4.907-.824 7.086.239-.007-.66-.004-1.32 0-1.98-3.097-1.099-6.922-1.04-9.496 1.222m17.207 2.71c-1.89.22-3.758 1.22-4.633 2.966-1.253 2.496-1.109 5.867.864 7.96 2.035 2.297 5.945 2.32 8.18.297 2.425-2.308 2.699-6.468.757-9.164-1.148-1.629-3.273-2.183-5.168-2.058m17.887 2.722c-1.66 2.883-1.332 7.25 1.598 9.211 2.183 1.22 4.933.832 7.074-.308-.004-.617.004-1.235.031-1.848-1.687 1.07-3.937 1.856-5.812.777-1.309-.722-1.704-2.257-1.914-3.625 2.875-.039 5.746-.082 8.625-.074-.075-1.828-.118-3.894-1.45-5.308-2.199-2.43-6.644-1.657-8.152 1.175m-8.414-2.336v12.008c.652 0 1.312 0 1.973.004.023-2.195-.04-4.394.023-6.594.016-1.27.527-2.558 1.484-3.414.801-.605 1.883-.27 2.801-.246-.012-.636-.02-1.27-.023-1.902-1.793-.398-3.336.652-4.242 2.117-.02-.633-.04-1.266-.051-1.894-.656-.024-1.313-.051-1.965-.079zm0 0" />
      <path
        d="M58.758 89.223c1.652-.805 4.023-.41 4.945 1.3 1.05 1.887 1.027 4.383-.137 6.211-1.52 2.286-5.527 1.786-6.523-.742-1.008-2.258-.617-5.484 1.715-6.77zm0 0M79.04 92.414c.046-1.574 1.144-3.137 2.726-3.48.976-.164 2.097.007 2.773.793.672.714.813 1.714.98 2.64-2.16.012-4.32-.031-6.48.047zm0 0" />
    </g>
  </symbol>

  <symbol id="icon-drupal" viewBox="0 0 128 128" height="72px" width="72px">
    <path fill="#00598E"
      d="M91.1 24.935c-6.352-3.956-12.345-5.513-18.337-9.469-3.716-2.516-8.869-8.51-13.185-13.663-.838 8.27-3.355 11.625-6.231 14.022-6.112 4.795-9.948 6.232-15.222 9.109C33.69 27.212 9.601 41.595 9.601 72.516c0 30.923 26.008 53.694 54.892 53.694 28.886 0 53.934-20.974 53.934-52.734-.001-31.762-23.491-46.143-27.327-48.541z" />
    <path fill="#fff"
      d="M81.365 99.35c1.917 0 3.955.119 5.394 1.079 1.438.958 2.277 3.116 2.756 4.314.479 1.199 0 1.917-.959 2.396-.838.48-.958.24-1.797-1.317-.839-1.558-1.559-3.117-5.753-3.117-4.195 0-5.514 1.439-7.551 3.117-2.038 1.678-2.757 2.277-3.476 1.317-.719-.958-.479-1.917.839-3.116s3.476-3.116 5.513-3.955c2.038-.838 3.117-.718 5.034-.718zM61.47 113.013c2.397 1.917 5.992 3.475 13.663 3.475s13.063-2.157 15.461-3.954c1.079-.84 1.558-.12 1.678.359.12.479.36 1.199-.479 2.037-.599.6-6.112 4.435-12.584 5.034-6.473.599-15.221.959-20.495-3.835-.839-.839-.599-2.037 0-2.516.6-.479 1.079-.84 1.798-.84s.598-.001.958.24z" />
    <path fill="#0073BA"
      d="M32.106 103.903c9.108-.119 10.786-1.678 18.816-5.273 43.387-19.416 51.416-37.153 52.975-41.229 1.558-4.076 3.835-10.667 1.438-17.979a66.4 66.4 0 01-1.045-3.456c-5.765-6.447-11.489-9.965-13.218-11.045-6.232-3.955-12.345-5.513-18.338-9.468-3.715-2.397-8.868-8.51-13.183-13.663-.84 8.269-3.236 11.746-6.233 14.022-6.112 4.795-9.947 6.233-15.221 9.109-4.433 2.397-28.523 16.66-28.523 47.581 0 9.873 2.651 18.915 7.201 26.649l1.188-.042c2.517 2.278 6.473 4.914 14.143 4.794z" />
    <path fill="#004975"
      d="M91.073 24.922c-6.232-3.955-12.345-5.513-18.338-9.468-3.715-2.397-8.868-8.51-13.183-13.663-.84 8.269-3.236 11.746-6.233 14.022-6.112 4.795-9.947 6.233-15.221 9.109-4.434 2.396-28.524 16.659-28.524 47.58 0 9.873 2.651 18.915 7.201 26.649 9.7 16.492 28.028 27.044 47.69 27.044 28.885 0 53.934-20.974 53.934-52.735 0-17.441-7.084-29.641-14.108-37.494-5.765-6.446-11.489-9.964-13.218-11.044zm14.569 14.03c7.868 9.838 11.859 21.448 11.859 34.509 0 7.58-1.444 14.739-4.291 21.281a48.926 48.926 0 01-11.559 16.34c-9.823 9.168-23.029 14.216-37.186 14.216-7.003 0-13.875-1.338-20.427-3.977a54.728 54.728 0 01-17.232-11.029c-10.533-9.955-16.334-23.375-16.334-37.789 0-12.837 4.167-24.244 12.386-33.905 6.278-7.379 13.049-11.469 15.668-12.885a152.775 152.775 0 013.618-1.898c3.616-1.856 7.032-3.609 11.73-7.295 2.505-1.903 5.174-4.919 6.31-12.576 3.96 4.708 8.554 10 12.064 12.264 3.116 2.058 6.312 3.499 9.403 4.892 2.923 1.319 5.947 2.682 8.938 4.581l.113.07c8.748 5.46 13.407 11.286 14.94 13.201z" />
    <path fill="#93C5E4"
      d="M60.151 4.187c1.678 4.914 1.438 7.431 1.438 8.51s-.6 3.956-2.518 5.393c-.839.6-1.078 1.079-1.078 1.199 0 .479 1.078.839 1.078 1.917 0 1.319-.599 3.956-6.951 10.308-6.353 6.352-15.461 11.985-22.532 15.46-7.071 3.476-10.427 3.237-11.386 1.559-.959-1.678.359-5.393 4.794-10.307 4.435-4.915 18.457-11.986 18.457-11.986l17.499-12.224.958-4.675" />
    <path fill="#fff"
      d="M60.151 4.067c-1.079 7.911-3.476 10.308-6.712 12.824-5.394 4.076-10.667 6.592-11.865 7.191-3.116 1.558-14.382 7.791-20.255 16.78-1.798 2.756 0 3.835.359 4.074.36.24 4.435.719 13.184-4.554 8.75-5.274 12.585-8.39 17.499-13.544 2.637-2.756 2.996-4.314 2.996-5.034 0-.838-.6-1.198-1.558-1.438-.48-.12-.6-.36 0-.719.599-.359 3.115-1.558 3.715-2.037.6-.479 3.476-2.396 3.596-5.513.119-3.116-.12-5.274-.959-8.03zM33.185 91.199c.12-9.349 8.869-18.098 19.896-18.218 14.022-.119 23.73 13.903 30.802 13.783 5.991-.118 17.497-11.864 23.131-11.864 5.992 0 7.671 6.232 7.671 9.948 0 3.715-1.199 10.427-4.076 14.621-2.876 4.196-4.674 5.753-8.029 5.513-4.314-.359-12.944-13.783-18.458-14.022-6.95-.24-22.053 14.501-33.918 14.501-7.19 0-9.348-1.078-11.745-2.637-3.597-2.515-5.394-6.351-5.274-11.625z" />
    <path
      d="M105.336 39.423c2.396 7.311.119 13.903-1.438 17.979-1.559 4.075-9.588 21.813-52.975 41.229-8.03 3.595-9.708 5.154-18.816 5.273-7.671.12-11.626-2.516-14.143-4.793l-1.188.042c9.7 16.492 28.028 27.044 47.69 27.044 28.885 0 53.934-20.974 53.934-52.735 0-17.441-7.084-29.641-14.108-37.494.243.91.581 2.044 1.044 3.455z"
      fill="none" />
  </symbol>

  <symbol id="icon-express" viewBox="0 0 128 128" height="72px" width="72px">
    <path
      d="M126.67 98.44c-4.56 1.16-7.38.05-9.91-3.75-5.68-8.51-11.95-16.63-18-24.9-.78-1.07-1.59-2.12-2.6-3.45C89 76 81.85 85.2 75.14 94.77c-2.4 3.42-4.92 4.91-9.4 3.7l26.92-36.13L67.6 29.71c4.31-.84 7.29-.41 9.93 3.45 5.83 8.52 12.26 16.63 18.67 25.21 6.45-8.55 12.8-16.67 18.8-25.11 2.41-3.42 5-4.72 9.33-3.46-3.28 4.35-6.49 8.63-9.72 12.88-4.36 5.73-8.64 11.53-13.16 17.14-1.61 2-1.35 3.3.09 5.19C109.9 76 118.16 87.1 126.67 98.44zM1.33 61.74c.72-3.61 1.2-7.29 2.2-10.83 6-21.43 30.6-30.34 47.5-17.06C60.93 41.64 63.39 52.62 62.9 65H7.1c-.84 22.21 15.15 35.62 35.53 28.78 7.15-2.4 11.36-8 13.47-15 1.07-3.51 2.84-4.06 6.14-3.06-1.69 8.76-5.52 16.08-13.52 20.66-12 6.86-29.13 4.64-38.14-4.89C5.26 85.89 3 78.92 2 71.39c-.15-1.2-.46-2.38-.7-3.57q.03-3.04.03-6.08zm5.87-1.49h50.43c-.33-16.06-10.33-27.47-24-27.57-15-.12-25.78 11.02-26.43 27.57z" />
  </symbol>

  <symbol id="icon-figma" viewBox="0 0 128 128" height="72px" width="72px">
    <path fill="#0acf83"
      d="M45.5 129c11.9 0 21.5-9.6 21.5-21.5V86H45.5C33.6 86 24 95.6 24 107.5S33.6 129 45.5 129zm0 0" />
    <path fill="#a259ff" d="M24 64.5C24 52.6 33.6 43 45.5 43H67v43H45.5C33.6 86 24 76.4 24 64.5zm0 0" />
    <path fill="#f24e1e" d="M24 21.5C24 9.6 33.6 0 45.5 0H67v43H45.5C33.6 43 24 33.4 24 21.5zm0 0" />
    <path fill="#ff7262" d="M67 0h21.5C100.4 0 110 9.6 110 21.5S100.4 43 88.5 43H67zm0 0" />
    <path fill="#1abcfe"
      d="M110 64.5c0 11.9-9.6 21.5-21.5 21.5S67 76.4 67 64.5 76.6 43 88.5 43 110 52.6 110 64.5zm0 0" />
  </symbol>

  <symbol id="icon-git" viewBox="0 0 128 128" height="72px" width="72px">
    <path fill="#F34F29"
      d="M124.737 58.378L69.621 3.264c-3.172-3.174-8.32-3.174-11.497 0L46.68 14.71l14.518 14.518c3.375-1.139 7.243-.375 9.932 2.314 2.703 2.706 3.461 6.607 2.294 9.993l13.992 13.993c3.385-1.167 7.292-.413 9.994 2.295 3.78 3.777 3.78 9.9 0 13.679a9.673 9.673 0 01-13.683 0 9.677 9.677 0 01-2.105-10.521L68.574 47.933l-.002 34.341a9.708 9.708 0 012.559 1.828c3.778 3.777 3.778 9.898 0 13.683-3.779 3.777-9.904 3.777-13.679 0-3.778-3.784-3.778-9.905 0-13.683a9.65 9.65 0 013.167-2.11V47.333a9.581 9.581 0 01-3.167-2.111c-2.862-2.86-3.551-7.06-2.083-10.576L41.056 20.333 3.264 58.123a8.133 8.133 0 000 11.5l55.117 55.114c3.174 3.174 8.32 3.174 11.499 0l54.858-54.858a8.135 8.135 0 00-.001-11.501z" />
  </symbol>

  <symbol id="icon-html5" viewBox="0 0 128 128" height="72px" width="72px">
    <path fill="#E44D26" d="M19.037 113.876L9.032 1.661h109.936l-10.016 112.198-45.019 12.48z" />
    <path fill="#F16529" d="M64 116.8l36.378-10.086 8.559-95.878H64z" />
    <path fill="#EBEBEB"
      d="M64 52.455H45.788L44.53 38.361H64V24.599H29.489l.33 3.692 3.382 37.927H64zm0 35.743l-.061.017-15.327-4.14-.979-10.975H33.816l1.928 21.609 28.193 7.826.063-.017z" />
    <path fill="#fff"
      d="M63.952 52.455v13.763h16.947l-1.597 17.849-15.35 4.143v14.319l28.215-7.82.207-2.325 3.234-36.233.335-3.696h-3.708zm0-27.856v13.762h33.244l.276-3.092.628-6.978.329-3.692z" />
  </symbol>

  <symbol id="icon-javascript" viewBox="0 0 128 128" height="72px" width="72px">
    <path fill="#F0DB4F" d="M1.408 1.408h125.184v125.185H1.408z" />
    <path fill="#323330"
      d="M116.347 96.736c-.917-5.711-4.641-10.508-15.672-14.981-3.832-1.761-8.104-3.022-9.377-5.926-.452-1.69-.512-2.642-.226-3.665.821-3.32 4.784-4.355 7.925-3.403 2.023.678 3.938 2.237 5.093 4.724 5.402-3.498 5.391-3.475 9.163-5.879-1.381-2.141-2.118-3.129-3.022-4.045-3.249-3.629-7.676-5.498-14.756-5.355l-3.688.477c-3.534.893-6.902 2.748-8.877 5.235-5.926 6.724-4.236 18.492 2.975 23.335 7.104 5.332 17.54 6.545 18.873 11.531 1.297 6.104-4.486 8.08-10.234 7.378-4.236-.881-6.592-3.034-9.139-6.949-4.688 2.713-4.688 2.713-9.508 5.485 1.143 2.499 2.344 3.63 4.26 5.795 9.068 9.198 31.76 8.746 35.83-5.176.165-.478 1.261-3.666.38-8.581zM69.462 58.943H57.753l-.048 30.272c0 6.438.333 12.34-.714 14.149-1.713 3.558-6.152 3.117-8.175 2.427-2.059-1.012-3.106-2.451-4.319-4.485-.333-.584-.583-1.036-.667-1.071l-9.52 5.83c1.583 3.249 3.915 6.069 6.902 7.901 4.462 2.678 10.459 3.499 16.731 2.059 4.082-1.189 7.604-3.652 9.448-7.401 2.666-4.915 2.094-10.864 2.07-17.444.06-10.735.001-21.468.001-32.237z" />
  </symbol>

  <symbol id="icon-jest" viewBox="0 0 128 128" height="72px" width="72px">
    <path fill="#99425B"
      d="M124.129 63.02c0-7.692-5.828-14.165-13.652-16.012L128 .113H41.16l17.563 47.043c-7.578 1.996-13.164 8.356-13.164 15.903 0 5.546 3.058 10.464 7.703 13.496-1.832 2.367-3.953 4.55-6.356 6.62-4.523 3.848-9.539 6.805-14.957 8.766-4.89-2.996-7.008-8.285-5.094-13.02 7.457-2.07 12.88-8.394 12.88-15.827 0-9.133-8.192-16.532-18.22-16.532-10.066 0-18.253 7.434-18.253 16.57 0 4.513 2.035 8.653 5.297 11.61-.286.52-.57 1.035-.856 1.59C4.973 81.438 1.875 87.207.691 93.68c-2.363 12.941 1.508 23.336 10.84 29.215 5.258 3.293 11.047 4.957 17.282 4.957 10.714 0 21.597-4.883 32.109-9.618 7.5-3.363 15.242-6.879 22.863-8.578 2.813-.629 5.746-1 8.844-1.406 6.273-.813 12.754-1.664 18.582-4.734 6.805-3.586 11.45-9.579 12.797-16.457 1.015-5.29 0-10.614-2.61-15.274a15.35 15.35 0 002.73-8.765zm-7.945 0c0 5.14-4.606 9.32-10.27 9.32s-10.27-4.18-10.27-9.32c0-1.665.489-3.254 1.344-4.622.325-.52.735-1.035 1.14-1.48a8.517 8.517 0 011.427-1.219l.043-.039c.324-.222.691-.445 1.058-.664 0 0 .04 0 .04-.039.163-.074.327-.184.492-.258.039 0 .078-.039.12-.039.165-.07.368-.144.57-.219a8.78 8.78 0 00.571-.222c.04 0 .082-.04.121-.04.164-.034.328-.109.489-.144.043 0 .125-.039.164-.039.203-.035.367-.074.57-.11h.043l.61-.113c.042 0 .12 0 .163-.035.164 0 .325-.039.489-.039h.203c.203 0 .41-.035.652-.035h.531c.16 0 .286 0 .446.035h.082c.328.04.652.074.98.149 4.645.886 8.192 4.66 8.192 9.172zM52.527 7.508h64.102l-14.711 39.387c-.61.113-1.223.296-1.832.48l-15.484-28.66L69.074 47.19c-.613-.183-1.265-.296-1.914-.406zM81.664 59.8c-.773-3.477-2.73-6.582-5.5-8.875l8.438-15.457 8.515 15.789c-2.527 2.293-4.36 5.215-5.094 8.543zM61.25 53.96c.203-.04.367-.074.57-.113h.121c.164-.035.329-.035.489-.075h.164c.164 0 .285-.035.449-.035h1.59c.16 0 .285.035.406.035.082 0 .121 0 .203.04.164.035.285.035.45.074.038 0 .081 0 .163.035.204.039.407.074.57.113h.04c.164.035.328.07.488.145.043 0 .082.039.164.039.121.035.285.074.406.148.043 0 .082.035.125.035.16.075.325.114.489.188h.039c.203.07.367.144.531.258h.04c.163.074.327.183.491.257.04 0 .04.04.078.04.164.07.286.183.45.257l.043.035c.488.333.937.704 1.382 1.075l.043.035c.407.406.813.851 1.141 1.332 1.059 1.48 1.672 3.219 1.672 5.105 0 5.141-4.606 9.317-10.27 9.317s-10.27-4.176-10.27-9.317c-.042-4.328 3.259-7.988 7.743-9.023zm-40.102-.262c5.665 0 10.27 4.18 10.27 9.32 0 5.141-4.605 9.32-10.27 9.32-5.664 0-10.27-4.179-10.27-9.32 0-5.14 4.606-9.32 10.27-9.32zm94.79 32.067c-.895 4.73-4.118 8.875-8.844 11.351-4.442 2.332-9.903 3.07-15.649 3.809-3.136.406-6.437.851-9.617 1.554-8.476 1.887-16.625 5.586-24.531 9.133-10.106 4.551-19.645 8.84-28.484 8.84-4.606 0-8.723-1.183-12.633-3.66-8.965-5.621-8.52-16.16-7.457-21.93.976-5.402 3.707-10.468 6.316-15.312.16-.297.285-.555.445-.852.899.297 1.836.52 2.813.668-1.547 7.84 2.851 15.938 11.41 19.934l1.55.738 1.669-.555c7.133-2.293 13.734-6.027 19.562-11.02 3.301-2.812 6.114-5.843 8.477-9.136.937.149 1.875.188 2.812.188 8.477 0 15.606-5.29 17.645-12.391h6.844c2.039 7.137 9.171 12.39 17.648 12.39 3.383 0 6.52-.85 9.207-2.292 1.063 2.773 1.387 5.656.817 8.543zm0 0" />
  </symbol>

  <symbol id="icon-jira" viewBox="0 0 128 128" height="72px" width="72px">
    <defs>
      <linearGradient id="jira-original-a" gradientUnits="userSpaceOnUse" x1="22.034" y1="9.773" x2="17.118" y2="14.842"
        gradientTransform="scale(4)">
        <stop offset=".176" stop-color="#0052cc" />
        <stop offset="1" stop-color="#2684ff" />
      </linearGradient>
      <linearGradient id="jira-original-b" gradientUnits="userSpaceOnUse" x1="16.641" y1="15.564" x2="10.957"
        y2="21.094" gradientTransform="scale(4)">
        <stop offset=".176" stop-color="#0052cc" />
        <stop offset="1" stop-color="#2684ff" />
      </linearGradient>
    </defs>
    <path
      d="M108.023 16H61.805c0 11.52 9.324 20.848 20.847 20.848h8.5v8.226c0 11.52 9.328 20.848 20.848 20.848V19.977A3.98 3.98 0 00108.023 16zm0 0"
      fill="#2684ff" />
    <path
      d="M85.121 39.04H38.902c0 11.519 9.325 20.847 20.844 20.847h8.504v8.226c0 11.52 9.328 20.848 20.848 20.848V43.016a3.983 3.983 0 00-3.977-3.977zm0 0"
      fill="url(#jira-original-a)" />
    <path
      d="M62.219 62.078H16c0 11.524 9.324 20.848 20.848 20.848h8.5v8.23c0 11.52 9.328 20.844 20.847 20.844V66.059a3.984 3.984 0 00-3.976-3.98zm0 0"
      fill="url(#jira-original-b)" />
  </symbol>

  <symbol id="icon-nestjs" viewBox="0 0 128 128" height="72px" width="72px">
    <path fill="#df234f"
      d="M75.323.4c-.898 0-1.796.199-2.594.498 1.696 1.098 2.594 2.594 3.093 4.29 0 .2.1.4.1.599 0 .2.1.399.1.598.1 2.894-.799 3.293-1.397 4.989-.998 2.194-.698 4.589.499 6.484.1.2.2.5.399.699-1.297-8.38 5.686-9.578 6.983-12.172.1-2.294-1.795-3.79-3.292-4.888C77.718.599 76.52.399 75.324.399ZM85.8 2.194c-.1.798 0 .599-.1.998 0 .299 0 .598-.1.898-.1.299-.1.499-.2.798-.1.3-.199.499-.299.798-.1.2-.2.399-.3.698-.099.1-.199.3-.298.4-.1.1-.1.199-.2.299-.2.2-.3.498-.499.698l-.598.599c-.2.2-.4.399-.599.498-.698.5-1.496.898-2.195 1.397-.2.2-.499.3-.698.499-.2.2-.4.3-.599.499l-.598.598c-.2.2-.4.4-.5.699-.199.2-.299.499-.498.698-.1.3-.2.499-.399.798-.1.3-.2.5-.3.798-.1.3-.199.599-.199.798 0 .1 0 .3-.1.4 0 .1 0 .299-.1.399v1.396c0 .3 0 .5.1.798 0 .3.1.5.2.799s.2.498.3.798c.099.2.199.299.199.499l-7.583-2.894a53.157 53.157 0 0 0-3.79-.997c-.699-.2-1.397-.3-2.096-.5a61.927 61.927 0 0 0-5.986-.897h-.2c-1.995-.2-3.89-.3-5.885-.3-1.497 0-2.894.1-4.29.2-1.996.1-3.99.4-5.986.699l-1.497.299c-.997.2-1.995.399-2.993.698-.499.1-.997.3-1.496.4-.499.199-.998.398-1.397.598-.399.2-.698.3-1.097.499-.1 0-.1 0-.2.1-.3.199-.598.299-.898.498-.1 0-.2.1-.2.1-.398.2-.698.4-.997.499-.2.1-.499.2-.698.3-.1.099-.2.099-.3.199-.299.2-.598.299-.898.498-.299.2-.598.3-.798.5-.2.199-.499.299-.698.498 0 0-.1 0-.1.1-.2.1-.399.3-.598.499l-.1.1c-.2.1-.3.299-.499.399-.1 0-.1.1-.2.1-.199.1-.299.299-.498.398 0 .1-.1.1-.1.1l-.599.599-.1.1-.598.598s0 .1-.1.1l-.499.499c-.1.1-.2.1-.2.2l-.598.598c0 .1-.1.1-.1.2l-.798.797-.1.1c-.498.599-1.097 1.098-1.695 1.597-.599.498-1.198.997-1.896 1.496s-1.297.898-1.995 1.297c-.699.399-1.397.698-2.095.998-.699.299-1.397.598-2.095.798-1.397.3-2.794.898-3.991.997 0-.498-.3-.399-.599-.399-.299.1-.598.1-.798.2-.3.1-.499.2-.798.3a2.96 2.96 0 0 0-.798.398c-.2.2-.499.3-.698.5-.2.199-.5.398-.699.598-.2.2-.499.399-.698.598-.2.2-.4.4-.599.699-.2.299-.399.498-.499.798-.199.2-.299.499-.498.798-.1.3-.3.598-.4.898l-.299.898c-.1.299-.1.498-.2.798v.1c-.1.3-.1.698-.1.898.1-.1.1.1.1.299v.399c0 .2.1.399.1.598.1.2.1.4.2.599.099.2.199.399.398.599.1.2.3.399.4.598.199.2.398.4.598.499.2.2.399.4.598.499.798.698.998.898 1.996 1.496.2.1.299.2.499.3h.1v.2c0 .298.1.498.199.797.1.3.2.599.3.798l.298.599c0 .1.1.1.1.2.1.299.3.498.4.698.199.2.299.499.498.698l.599.599.598.598h.1c.2.2.399.3.599.5s.499.299.698.398c.2.1.499.3.798.4.2.1.4.199.698.199 0 0 .1 0 .1.1.1 0 .3.1.4.1-.1 1.795-.1 3.491.1 4.09.298.698 1.795-1.397 3.192-3.691-.2 2.294-.3 4.988 0 5.786.399.798 2.294-1.796 4.09-4.59 23.345-5.387 44.695 10.775 46.99 33.622-.4-3.592-4.79-5.587-6.884-5.088-.998 2.394-2.694 5.587-5.387 7.482.199-2.195.1-4.39-.3-6.584-.698 2.993-2.095 5.886-4.09 8.28-3.093.2-6.285-1.297-7.882-3.591-.1-.1-.2-.3-.299-.4-.1-.199-.2-.498-.3-.698-.1-.2-.199-.499-.199-.698v-1.197c0-.2.1-.5.2-.699s.1-.499.2-.698c.099-.2.199-.499.398-.698.599-1.597.599-2.894-.499-3.592l-.598-.3c-.1 0-.3-.099-.4-.099s-.199-.1-.299-.1c-.199-.1-.498-.1-.698-.2-.2-.1-.499-.1-.698-.1-.2 0-.5-.099-.699-.099h-.498c-.3 0-.5 0-.699.1-.2 0-.499.1-.698.1-.2.1-.499.1-.699.2-.199.099-.399.199-.698.298l-.599.3c-7.682 4.988-3.092 16.76 2.096 20.152-1.996.4-3.991.798-4.59 1.198l-.1.1c1.397.897 2.894 1.596 4.49 2.194 2.095.699 4.39 1.297 5.387 1.597 2.694.598 5.488.798 8.281.598 14.566-.998 26.538-12.171 28.732-26.737.1.3.1.598.2.898.1.598.2 1.197.3 1.895.1.3.1.599.1.898v.1c0 .3.099.599.099.898 0 .399.1.698.1 1.097v4.19c0 .3-.1.5-.1.799v.299c0 .3-.1.599-.1.998-.1.299-.1.598-.2.898v.1c-.1.299-.1.598-.199.897v.1c-.1.3-.1.599-.2.898v.1l-.299.898v.1c-.1.299-.2.698-.299.997-.1.3-.2.599-.4.998-.099.299-.199.698-.398.997-.1.3-.3.599-.4.998-.099.3-.299.599-.398.898 0 .1-.1.2-.1.2s0 .1-.1.1c-2.095 4.289-5.287 8.08-9.278 11.073-.3.2-.499.4-.798.599-.1.1-.2.1-.2.2-.2.199-.499.299-.698.498l.1.2c.498-.1.898-.1 1.396-.2.898-.1 1.696-.3 2.594-.499.2 0 .5-.1.699-.2.2 0 .299-.1.498-.1s.5-.099.699-.099c.2-.1.399-.1.598-.2 3.293-.797 6.485-1.895 9.578-3.192-5.288 7.183-12.271 12.97-20.452 16.76 3.791-.299 7.582-.897 11.273-1.995a52.469 52.469 0 0 0 31.127-24.941c-1.396 7.582-4.39 14.865-8.879 21.25 3.193-2.095 6.086-4.59 8.78-7.283 7.382-7.682 12.27-17.559 13.867-28.034 1.098 5.188 1.497 10.575.998 15.863 23.844-33.222 1.995-67.641-7.183-76.72 0-.1-.1-.1-.1-.2 0 .4 0 .798-.1 1.198-.1.798-.2 1.496-.3 2.194-.199.699-.398 1.497-.598 2.195-.2.699-.499 1.397-.798 2.095-.3.699-.599 1.397-.998 1.996s-.798 1.297-1.197 1.895c-.399.599-.898 1.197-1.397 1.796-.498.599-.997 1.097-1.596 1.696-.3.3-.598.599-.997.798-.3.2-.5.4-.799.698-.598.5-1.197.898-1.895 1.297-.599.4-1.297.799-1.995 1.098l-2.096.898c-.698.299-1.396.499-2.095.698-.698.2-1.496.4-2.195.499-.798.1-1.496.2-2.194.3-.5 0-1.098.099-1.597.099-.798 0-1.496-.1-2.194-.1-.799-.1-1.497-.2-2.195-.3a7.874 7.874 0 0 1-2.195-.598c.698-.1 1.496-.1 2.195-.299.798-.1 1.496-.3 2.195-.499.698-.2 1.496-.399 2.095-.698l2.095-.898c.698-.3 1.297-.698 1.995-1.097.599-.4 1.297-.898 1.896-1.297.598-.5 1.197-.998 1.696-1.497.598-.499 1.097-1.097 1.596-1.596.499-.599.998-1.197 1.397-1.796.1-.1.1-.2.2-.3.298-.498.697-1.097.997-1.595a18.56 18.56 0 0 0 .997-1.996c.3-.698.6-1.397.799-2.095l.598-2.095c.1-.798.3-1.496.3-2.195.1-.798.1-1.496.1-2.195 0-.498 0-1.097-.1-1.596-.1-.798-.2-1.496-.3-2.195-.1-.798-.3-1.496-.499-2.195-.2-.698-.499-1.396-.698-2.095-.3-.698-.599-1.396-.898-1.995-.399-.698-.698-1.297-1.097-1.995-.4-.599-.898-1.198-1.297-1.796-.499-.599-.998-1.098-1.497-1.696-.299-.3-.598-.599-.898-.798-1.496-1.197-2.993-2.195-4.589-3.193-.2-.1-.399-.2-.698-.3-1.297-1.096-2.295-1.396-3.292-1.795Z" />
  </symbol>

  <symbol id="icon-nextjs" viewBox="0 0 128 128" height="72px" width="72px">
    <circle cx="64" cy="64" r="64" />
    <path fill="url(#a)"
      d="M106.317 112.014 49.167 38.4H38.4v51.179h8.614v-40.24l52.54 67.884a64.216 64.216 0 0 0 6.763-5.209z" />
    <path fill="url(#b)" d="M81.778 38.4h8.533v51.2h-8.533z" />
    <defs>
      <linearGradient id="a" x1="109" x2="144.5" y1="116.5" y2="160.5" gradientTransform="scale(.71111)"
        gradientUnits="userSpaceOnUse">
        <stop stop-color="#fff" />
        <stop offset="1" stop-color="#fff" stop-opacity="0" />
      </linearGradient>
      <linearGradient id="b" x1="121" x2="120.799" y1="54" y2="106.875" gradientTransform="scale(.71111)"
        gradientUnits="userSpaceOnUse">
        <stop stop-color="#fff" />
        <stop offset="1" stop-color="#fff" stop-opacity="0" />
      </linearGradient>
    </defs>
  </symbol>

  <symbol id="icon-nodejs" viewBox="0 0 128 128" height="72px" width="72px">
    <path fill="url(#a)"
      d="M66.958.825a6.07 6.07 0 0 0-6.035 0L11.103 29.76c-1.895 1.072-2.96 3.095-2.96 5.24v57.988c0 2.143 1.183 4.167 2.958 5.24l49.82 28.934a6.07 6.07 0 0 0 6.036 0l49.82-28.935c1.894-1.072 2.958-3.096 2.958-5.24V35c0-2.144-1.183-4.167-2.958-5.24z" />
    <path fill="url(#b)"
      d="M116.897 29.76 66.841.825A8.161 8.161 0 0 0 65.302.23L9.21 96.798a6.251 6.251 0 0 0 1.657 1.43l50.057 28.934c1.42.833 3.076 1.072 4.615.595l52.66-96.925a3.702 3.702 0 0 0-1.302-1.072z" />
    <path fill="url(#c)"
      d="M116.898 98.225c1.42-.833 2.485-2.262 2.958-3.81L65.066.108c-1.42-.238-2.959-.119-4.26.715L11.104 29.639l53.606 98.355c.71-.12 1.54-.358 2.25-.715z" />
    <defs>
      <linearGradient id="a" x1="34.513" x2="27.157" y1="15.535" y2="30.448"
        gradientTransform="translate(-129.242 -73.715) scale(6.18523)" gradientUnits="userSpaceOnUse">
        <stop stop-color="#3F873F" />
        <stop offset=".33" stop-color="#3F8B3D" />
        <stop offset=".637" stop-color="#3E9638" />
        <stop offset=".934" stop-color="#3DA92E" />
        <stop offset="1" stop-color="#3DAE2B" />
      </linearGradient>
      <linearGradient id="b" x1="30.009" x2="50.533" y1="23.359" y2="8.288"
        gradientTransform="translate(-129.242 -73.715) scale(6.18523)" gradientUnits="userSpaceOnUse">
        <stop offset=".138" stop-color="#3F873F" />
        <stop offset=".402" stop-color="#52A044" />
        <stop offset=".713" stop-color="#64B749" />
        <stop offset=".908" stop-color="#6ABF4B" />
      </linearGradient>
      <linearGradient id="c" x1="21.917" x2="40.555" y1="22.261" y2="22.261"
        gradientTransform="translate(-129.242 -73.715) scale(6.18523)" gradientUnits="userSpaceOnUse">
        <stop offset=".092" stop-color="#6ABF4B" />
        <stop offset=".287" stop-color="#64B749" />
        <stop offset=".598" stop-color="#52A044" />
        <stop offset=".862" stop-color="#3F873F" />
      </linearGradient>
    </defs>
  </symbol>

  <symbol id="icon-postgresql" viewBox="0 0 128 128" height="72px" width="72px">
    <path
      d="M93.809 92.112c.785-6.533.55-7.492 5.416-6.433l1.235.108c3.742.17 8.637-.602 11.513-1.938 6.191-2.873 9.861-7.668 3.758-6.409-13.924 2.873-14.881-1.842-14.881-1.842 14.703-21.815 20.849-49.508 15.543-56.287-14.47-18.489-39.517-9.746-39.936-9.52l-.134.025c-2.751-.571-5.83-.912-9.289-.968-6.301-.104-11.082 1.652-14.709 4.402 0 0-44.683-18.409-42.604 23.151.442 8.841 12.672 66.898 27.26 49.362 5.332-6.412 10.484-11.834 10.484-11.834 2.558 1.699 5.622 2.567 8.834 2.255l.249-.212c-.078.796-.044 1.575.099 2.497-3.757 4.199-2.653 4.936-10.166 6.482-7.602 1.566-3.136 4.355-.221 5.084 3.535.884 11.712 2.136 17.238-5.598l-.22.882c1.474 1.18 1.375 8.477 1.583 13.69.209 5.214.558 10.079 1.621 12.948 1.063 2.868 2.317 10.256 12.191 8.14 8.252-1.764 14.561-4.309 15.136-27.985" />
    <path
      d="M75.458 125.256c-4.367 0-7.211-1.689-8.938-3.32-2.607-2.46-3.641-5.629-4.259-7.522l-.267-.79c-1.244-3.358-1.666-8.193-1.916-14.419-.038-.935-.064-1.898-.093-2.919-.021-.747-.047-1.684-.085-2.664a18.8 18.8 0 01-4.962 1.568c-3.079.526-6.389.356-9.84-.507-2.435-.609-4.965-1.871-6.407-3.82-4.203 3.681-8.212 3.182-10.396 2.453-3.853-1.285-7.301-4.896-10.542-11.037-2.309-4.375-4.542-10.075-6.638-16.943-3.65-11.96-5.969-24.557-6.175-28.693C4.292 23.698 7.777 14.44 15.296 9.129 27.157.751 45.128 5.678 51.68 7.915c4.402-2.653 9.581-3.944 15.433-3.851 3.143.051 6.136.327 8.916.823 2.9-.912 8.628-2.221 15.185-2.139 12.081.144 22.092 4.852 28.949 13.615 4.894 6.252 2.474 19.381.597 26.651-2.642 10.226-7.271 21.102-12.957 30.57 1.544.011 3.781-.174 6.961-.831 6.274-1.295 8.109 2.069 8.607 3.575 1.995 6.042-6.677 10.608-9.382 11.864-3.466 1.609-9.117 2.589-13.745 2.377l-.202-.013-1.216-.107-.12 1.014-.116.991c-.311 11.999-2.025 19.598-5.552 24.619-3.697 5.264-8.835 6.739-13.361 7.709-1.544.33-2.947.474-4.219.474zm-9.19-43.671c2.819 2.256 3.066 6.501 3.287 14.434.028.99.054 1.927.089 2.802.106 2.65.355 8.855 1.327 11.477.137.371.26.747.39 1.146 1.083 3.316 1.626 4.979 6.309 3.978 3.931-.843 5.952-1.599 7.534-3.851 2.299-3.274 3.585-9.86 3.821-19.575l4.783.116-4.75-.57.14-1.186c.455-3.91.783-6.734 3.396-8.602 2.097-1.498 4.486-1.353 6.389-1.01-2.091-1.58-2.669-3.433-2.823-4.193l-.399-1.965 1.121-1.663c6.457-9.58 11.781-21.354 14.609-32.304 2.906-11.251 2.02-17.226 1.134-18.356-11.729-14.987-32.068-8.799-34.192-8.097l-.359.194-1.8.335-.922-.191c-2.542-.528-5.366-.82-8.393-.869-4.756-.08-8.593 1.044-11.739 3.431l-2.183 1.655-2.533-1.043c-5.412-2.213-21.308-6.662-29.696-.721-4.656 3.298-6.777 9.76-6.305 19.207.156 3.119 2.275 14.926 5.771 26.377 4.831 15.825 9.221 21.082 11.054 21.693.32.108 1.15-.537 1.976-1.529a270.708 270.708 0 0110.694-12.07l2.77-2.915 3.349 2.225c1.35.897 2.839 1.406 4.368 1.502l7.987-6.812-1.157 11.808c-.026.265-.039.626.065 1.296l.348 2.238-1.51 1.688-.174.196 4.388 2.025 1.836-2.301z" />
    <path fill="#336791"
      d="M115.731 77.44c-13.925 2.873-14.882-1.842-14.882-1.842 14.703-21.816 20.849-49.51 15.545-56.287C101.924.823 76.875 9.566 76.457 9.793l-.135.024c-2.751-.571-5.83-.911-9.291-.967-6.301-.103-11.08 1.652-14.707 4.402 0 0-44.684-18.408-42.606 23.151.442 8.842 12.672 66.899 27.26 49.363 5.332-6.412 10.483-11.834 10.483-11.834 2.559 1.699 5.622 2.567 8.833 2.255l.25-.212c-.078.796-.042 1.575.1 2.497-3.758 4.199-2.654 4.936-10.167 6.482-7.602 1.566-3.136 4.355-.22 5.084 3.534.884 11.712 2.136 17.237-5.598l-.221.882c1.473 1.18 2.507 7.672 2.334 13.557-.174 5.885-.29 9.926.871 13.082 1.16 3.156 2.316 10.256 12.192 8.14 8.252-1.768 12.528-6.351 13.124-13.995.422-5.435 1.377-4.631 1.438-9.49l.767-2.3c.884-7.367.14-9.743 5.225-8.638l1.235.108c3.742.17 8.639-.602 11.514-1.938 6.19-2.871 9.861-7.667 3.758-6.408z" />
    <path fill="#fff"
      d="M75.957 122.307c-8.232 0-10.84-6.519-11.907-9.185-1.562-3.907-1.899-19.069-1.551-31.503a1.59 1.59 0 011.64-1.55 1.594 1.594 0 011.55 1.639c-.401 14.341.168 27.337 1.324 30.229 1.804 4.509 4.54 8.453 12.275 6.796 7.343-1.575 10.093-4.359 11.318-11.46.94-5.449 2.799-20.951 3.028-24.01a1.593 1.593 0 011.71-1.472 1.597 1.597 0 011.472 1.71c-.239 3.185-2.089 18.657-3.065 24.315-1.446 8.387-5.185 12.191-13.794 14.037-1.463.313-2.792.453-4 .454zM31.321 90.466a6.71 6.71 0 01-2.116-.35c-5.347-1.784-10.44-10.492-15.138-25.885-3.576-11.717-5.842-23.947-6.041-27.922-.589-11.784 2.445-20.121 9.02-24.778 13.007-9.216 34.888-.44 35.813-.062a1.596 1.596 0 01-1.207 2.955c-.211-.086-21.193-8.492-32.768-.285-5.622 3.986-8.203 11.392-7.672 22.011.167 3.349 2.284 15.285 5.906 27.149 4.194 13.742 8.967 22.413 13.096 23.79.648.216 2.62.873 5.439-2.517A245.272 245.272 0 0145.88 73.046a1.596 1.596 0 012.304 2.208c-.048.05-4.847 5.067-10.077 11.359-2.477 2.979-4.851 3.853-6.786 3.853zm69.429-13.445a1.596 1.596 0 01-1.322-2.487c14.863-22.055 20.08-48.704 15.612-54.414-5.624-7.186-13.565-10.939-23.604-11.156-7.433-.16-13.341 1.738-14.307 2.069l-.243.099c-.971.305-1.716-.227-1.997-.849a1.6 1.6 0 01.631-2.025c.046-.027.192-.089.429-.176l-.021.006.021-.007c1.641-.601 7.639-2.4 15.068-2.315 11.108.118 20.284 4.401 26.534 12.388 2.957 3.779 2.964 12.485.019 23.887-3.002 11.625-8.651 24.118-15.497 34.277-.306.457-.81.703-1.323.703zm.76 10.21c-2.538 0-4.813-.358-6.175-1.174-1.4-.839-1.667-1.979-1.702-2.584-.382-6.71 3.32-7.878 5.208-8.411-.263-.398-.637-.866-1.024-1.349-1.101-1.376-2.609-3.26-3.771-6.078-.182-.44-.752-1.463-1.412-2.648-3.579-6.418-11.026-19.773-6.242-26.612 2.214-3.165 6.623-4.411 13.119-3.716C97.6 28.837 88.5 10.625 66.907 10.271c-6.494-.108-11.82 1.889-15.822 5.93-8.96 9.049-8.636 25.422-8.631 25.586a1.595 1.595 0 11-3.19.084c-.02-.727-.354-17.909 9.554-27.916C53.455 9.272 59.559 6.96 66.96 7.081c13.814.227 22.706 7.25 27.732 13.101 5.479 6.377 8.165 13.411 8.386 15.759.165 1.746-1.088 2.095-1.341 2.147l-.576.013c-6.375-1.021-10.465-.312-12.156 2.104-3.639 5.201 3.406 17.834 6.414 23.229.768 1.376 1.322 2.371 1.576 2.985.988 2.396 2.277 4.006 3.312 5.3.911 1.138 1.7 2.125 1.982 3.283.131.23 1.99 2.98 13.021.703 2.765-.57 4.423-.083 4.93 1.45.997 3.015-4.597 6.532-7.694 7.97-2.775 1.29-7.204 2.106-11.036 2.106zm-4.696-4.021c.35.353 2.101.962 5.727.806 3.224-.138 6.624-.839 8.664-1.786 2.609-1.212 4.351-2.567 5.253-3.492l-.5.092c-7.053 1.456-12.042 1.262-14.828-.577a6.162 6.162 0 01-.54-.401c-.302.119-.581.197-.78.253-1.58.443-3.214.902-2.996 5.105zm-45.562 8.915c-1.752 0-3.596-.239-5.479-.71-1.951-.488-5.24-1.957-5.19-4.37.057-2.707 3.994-3.519 5.476-3.824 5.354-1.103 5.703-1.545 7.376-3.67.488-.619 1.095-1.39 1.923-2.314 1.229-1.376 2.572-2.073 3.992-2.073.989 0 1.8.335 2.336.558 1.708.708 3.133 2.42 3.719 4.467.529 1.847.276 3.625-.71 5.006-3.237 4.533-7.886 6.93-13.443 6.93zm-7.222-4.943c.481.372 1.445.869 2.518 1.137 1.631.408 3.213.615 4.705.615 4.546 0 8.196-1.882 10.847-5.594.553-.774.387-1.757.239-2.274-.31-1.083-1.08-2.068-1.873-2.397-.43-.178-.787-.314-1.115-.314-.176 0-.712 0-1.614 1.009a41.146 41.146 0 00-1.794 2.162c-2.084 2.646-3.039 3.544-9.239 4.821-1.513.31-2.289.626-2.674.835zm12.269-7.36a1.596 1.596 0 01-1.575-1.354 8.218 8.218 0 01-.08-.799c-4.064-.076-7.985-1.82-10.962-4.926-3.764-3.927-5.477-9.368-4.699-14.927.845-6.037.529-11.366.359-14.229-.047-.796-.081-1.371-.079-1.769.003-.505.013-1.844 4.489-4.113 1.592-.807 4.784-2.215 8.271-2.576 5.777-.597 9.585 1.976 10.725 7.246 3.077 14.228.244 20.521-1.825 25.117-.385.856-.749 1.664-1.04 2.447l-.257.69c-1.093 2.931-2.038 5.463-1.748 7.354a1.595 1.595 0 01-1.335 1.819l-.244.02zM42.464 42.26l.062 1.139c.176 2.974.504 8.508-.384 14.86-.641 4.585.759 9.06 3.843 12.276 2.437 2.542 5.644 3.945 8.94 3.945h.068c.369-1.555.982-3.197 1.642-4.966l.255-.686c.329-.884.714-1.74 1.122-2.646 1.991-4.424 4.47-9.931 1.615-23.132-.565-2.615-1.936-4.128-4.189-4.627-4.628-1.022-11.525 2.459-12.974 3.837zm9.63-.677c-.08.564 1.033 2.07 2.485 2.271 1.449.203 2.689-.975 2.768-1.539.079-.564-1.033-1.186-2.485-1.388-1.451-.202-2.691.092-2.768.656zm2.818 2.826l-.407-.028c-.9-.125-1.81-.692-2.433-1.518-.219-.29-.576-.852-.505-1.354.101-.736.999-1.177 2.4-1.177.313 0 .639.023.967.069.766.106 1.477.327 2.002.62.91.508.977 1.075.936 1.368-.112.813-1.405 2.02-2.96 2.02zm-2.289-2.732c.045.348.907 1.496 2.029 1.651l.261.018c1.036 0 1.81-.815 1.901-1.082-.096-.182-.762-.634-2.025-.81a5.823 5.823 0 00-.821-.059c-.812 0-1.243.183-1.345.282zm43.605-1.245c.079.564-1.033 2.07-2.484 2.272-1.45.202-2.691-.975-2.771-1.539-.076-.564 1.036-1.187 2.486-1.388 1.45-.203 2.689.092 2.769.655zm-2.819 2.56c-1.396 0-2.601-1.086-2.7-1.791-.115-.846 1.278-1.489 2.712-1.688.316-.044.629-.066.93-.066 1.238 0 2.058.363 2.14.949.053.379-.238.964-.739 1.492-.331.347-1.026.948-1.973 1.079l-.37.025zm.943-3.013c-.276 0-.564.021-.856.061-1.441.201-2.301.779-2.259 1.089.048.341.968 1.332 2.173 1.332l.297-.021c.787-.109 1.378-.623 1.66-.919.443-.465.619-.903.598-1.052-.028-.198-.56-.49-1.613-.49zm3.965 32.843a1.594 1.594 0 01-1.324-2.483c3.398-5.075 2.776-10.25 2.175-15.255-.257-2.132-.521-4.337-.453-6.453.07-2.177.347-3.973.614-5.71.317-2.058.617-4.002.493-6.31a1.595 1.595 0 113.186-.172c.142 2.638-.197 4.838-.525 6.967-.253 1.643-.515 3.342-.578 5.327-.061 1.874.178 3.864.431 5.97.64 5.322 1.365 11.354-2.691 17.411a1.596 1.596 0 01-1.328.708z" />
  </symbol>

  <symbol id="icon-prisma" viewBox="0 0 128 128" height="72px" width="72px">
    <path fill="#2d3748"
      d="M66.457.014a6.308 6.308 0 0 0-5.812 3.028l-47.87 78.072a6.379 6.379 0 0 0 .048 6.748l23.568 37.186a6.387 6.387 0 0 0 7.22 2.683l68.012-20.407a6.37 6.37 0 0 0 3.96-8.765l-43.72-94.85A6.298 6.298 0 0 0 66.46.014Zm1.795 23.95a2.348 2.348 0 0 1 2.448 1.433l30.16 69.784a2.39 2.39 0 0 1-1.512 3.241l-46.996 14.024a2.39 2.39 0 0 1-3.024-2.76l16.83-83.812a2.353 2.353 0 0 1 2.099-1.91z" />
  </symbol>

  <symbol id="icon-react" viewBox="0 0 128 128" height="72px" width="72px">
    <g fill="#61DAFB">
      <circle cx="64" cy="64" r="11.4" />
      <path
        d="M107.3 45.2c-2.2-.8-4.5-1.6-6.9-2.3.6-2.4 1.1-4.8 1.5-7.1 2.1-13.2-.2-22.5-6.6-26.1-1.9-1.1-4-1.6-6.4-1.6-7 0-15.9 5.2-24.9 13.9-9-8.7-17.9-13.9-24.9-13.9-2.4 0-4.5.5-6.4 1.6-6.4 3.7-8.7 13-6.6 26.1.4 2.3.9 4.7 1.5 7.1-2.4.7-4.7 1.4-6.9 2.3C8.2 50 1.4 56.6 1.4 64s6.9 14 19.3 18.8c2.2.8 4.5 1.6 6.9 2.3-.6 2.4-1.1 4.8-1.5 7.1-2.1 13.2.2 22.5 6.6 26.1 1.9 1.1 4 1.6 6.4 1.6 7.1 0 16-5.2 24.9-13.9 9 8.7 17.9 13.9 24.9 13.9 2.4 0 4.5-.5 6.4-1.6 6.4-3.7 8.7-13 6.6-26.1-.4-2.3-.9-4.7-1.5-7.1 2.4-.7 4.7-1.4 6.9-2.3 12.5-4.8 19.3-11.4 19.3-18.8s-6.8-14-19.3-18.8zM92.5 14.7c4.1 2.4 5.5 9.8 3.8 20.3-.3 2.1-.8 4.3-1.4 6.6-5.2-1.2-10.7-2-16.5-2.5-3.4-4.8-6.9-9.1-10.4-13 7.4-7.3 14.9-12.3 21-12.3 1.3 0 2.5.3 3.5.9zM81.3 74c-1.8 3.2-3.9 6.4-6.1 9.6-3.7.3-7.4.4-11.2.4-3.9 0-7.6-.1-11.2-.4-2.2-3.2-4.2-6.4-6-9.6-1.9-3.3-3.7-6.7-5.3-10 1.6-3.3 3.4-6.7 5.3-10 1.8-3.2 3.9-6.4 6.1-9.6 3.7-.3 7.4-.4 11.2-.4 3.9 0 7.6.1 11.2.4 2.2 3.2 4.2 6.4 6 9.6 1.9 3.3 3.7 6.7 5.3 10-1.7 3.3-3.4 6.6-5.3 10zm8.3-3.3c1.5 3.5 2.7 6.9 3.8 10.3-3.4.8-7 1.4-10.8 1.9 1.2-1.9 2.5-3.9 3.6-6 1.2-2.1 2.3-4.2 3.4-6.2zM64 97.8c-2.4-2.6-4.7-5.4-6.9-8.3 2.3.1 4.6.2 6.9.2 2.3 0 4.6-.1 6.9-.2-2.2 2.9-4.5 5.7-6.9 8.3zm-18.6-15c-3.8-.5-7.4-1.1-10.8-1.9 1.1-3.3 2.3-6.8 3.8-10.3 1.1 2 2.2 4.1 3.4 6.1 1.2 2.2 2.4 4.1 3.6 6.1zm-7-25.5c-1.5-3.5-2.7-6.9-3.8-10.3 3.4-.8 7-1.4 10.8-1.9-1.2 1.9-2.5 3.9-3.6 6-1.2 2.1-2.3 4.2-3.4 6.2zM64 30.2c2.4 2.6 4.7 5.4 6.9 8.3-2.3-.1-4.6-.2-6.9-.2-2.3 0-4.6.1-6.9.2 2.2-2.9 4.5-5.7 6.9-8.3zm22.2 21l-3.6-6c3.8.5 7.4 1.1 10.8 1.9-1.1 3.3-2.3 6.8-3.8 10.3-1.1-2.1-2.2-4.2-3.4-6.2zM31.7 35c-1.7-10.5-.3-17.9 3.8-20.3 1-.6 2.2-.9 3.5-.9 6 0 13.5 4.9 21 12.3-3.5 3.8-7 8.2-10.4 13-5.8.5-11.3 1.4-16.5 2.5-.6-2.3-1-4.5-1.4-6.6zM7 64c0-4.7 5.7-9.7 15.7-13.4 2-.8 4.2-1.5 6.4-2.1 1.6 5 3.6 10.3 6 15.6-2.4 5.3-4.5 10.5-6 15.5C15.3 75.6 7 69.6 7 64zm28.5 49.3c-4.1-2.4-5.5-9.8-3.8-20.3.3-2.1.8-4.3 1.4-6.6 5.2 1.2 10.7 2 16.5 2.5 3.4 4.8 6.9 9.1 10.4 13-7.4 7.3-14.9 12.3-21 12.3-1.3 0-2.5-.3-3.5-.9zM96.3 93c1.7 10.5.3 17.9-3.8 20.3-1 .6-2.2.9-3.5.9-6 0-13.5-4.9-21-12.3 3.5-3.8 7-8.2 10.4-13 5.8-.5 11.3-1.4 16.5-2.5.6 2.3 1 4.5 1.4 6.6zm9-15.6c-2 .8-4.2 1.5-6.4 2.1-1.6-5-3.6-10.3-6-15.6 2.4-5.3 4.5-10.5 6-15.5 13.8 4 22.1 10 22.1 15.6 0 4.7-5.8 9.7-15.7 13.4z" />
    </g>
  </symbol>

  <symbol id="icon-redux" viewBox="0 0 128 128" height="72px" width="72px">
    <path fill="#764abc"
      d="M88.69 88.11c-9 18.4-24.76 30.78-45.61 34.85a39.73 39.73 0 0 1-9.77 1.14c-12 0-23-5-28.34-13.19C-2.2 100-4.64 76.87 19 59.76c.48 2.61 1.46 6.19 2.11 8.31A38.24 38.24 0 0 0 10 81.1c-4.4 8.64-3.91 17.27 1.3 25.25 3.6 5.38 9.3 8.65 16.63 9.65a44 44 0 0 0 26.55-5c12.71-6.68 21.18-14.66 26.72-25.57a9.32 9.32 0 0 1-2.61-6A9.12 9.12 0 0 1 87.37 70h.34a9.15 9.15 0 0 1 1 18.25zm28.67-20.2c12.21 13.84 12.54 30.13 7.82 39.58-4.4 8.63-16 17.27-31.6 17.27a50.48 50.48 0 0 1-21-5.05c2.29-1.63 5.54-4.24 7.33-5.87a41.54 41.54 0 0 0 16 3.42c10.1 0 17.75-4.72 22.31-13.35 2.93-5.7 3.1-12.38.33-19.22a43.61 43.61 0 0 0-17.27-20.85 62 62 0 0 0-34.74-10.59h-2.93a9.21 9.21 0 0 1-8 5.54h-.31a9.13 9.13 0 0 1-.3-18.25h.33a9 9 0 0 1 8 4.89h2.61c20.8 0 39.06 7.98 51.42 22.48zm-82.75 23a7.31 7.31 0 0 1 1.14-4.73c-9.12-15.8-14-35.83-6.51-56.68C34.61 13.83 48.13 3.24 62.79 3.24c15.64 0 31.93 13.69 33.88 40.07-2.44-.81-6-2-8.14-2.44-.53-8.63-7.82-30.13-25.09-29.81-6.19.17-15.31 3.1-20 9.12a43.69 43.69 0 0 0-9.64 25.25 59.61 59.61 0 0 0 8.47 36.16 2.75 2.75 0 0 1 1.14-.16h.32a9.121 9.121 0 0 1 .33 18.24h-.33a9.16 9.16 0 0 1-9.12-8.79z" />
  </symbol>

  <symbol id="icon-sass" viewBox="0 0 128 128" height="72px" width="72px">
    <path fill-rule="evenodd" clip-rule="evenodd" fill="#CB6699"
      d="M1.219 56.156c0 .703.207 1.167.323 1.618.756 2.933 2.381 5.45 4.309 7.746 2.746 3.272 6.109 5.906 9.554 8.383 2.988 2.148 6.037 4.248 9.037 6.38.515.366 1.002.787 1.561 1.236-.481.26-.881.489-1.297.7-3.959 2.008-7.768 4.259-11.279 6.986-2.116 1.644-4.162 3.391-5.607 5.674-2.325 3.672-3.148 7.584-1.415 11.761.506 1.22 1.278 2.274 2.367 3.053.353.252.749.502 1.162.6 1.058.249 2.136.412 3.207.609l3.033-.002c3.354-.299 6.407-1.448 9.166-3.352 4.312-2.976 7.217-6.966 8.466-12.087.908-3.722.945-7.448-.125-11.153a11.696 11.696 0 00-.354-1.014c-.13-.333-.283-.657-.463-1.072l6.876-3.954.103.088c-.125.409-.258.817-.371 1.23-.817 2.984-1.36 6.02-1.165 9.117.208 3.3 1.129 6.389 3.061 9.146 1.562 2.23 5.284 2.313 6.944.075.589-.795 1.16-1.626 1.589-2.513 1.121-2.315 2.159-4.671 3.23-7.011l.187-.428c-.077 1.108-.167 2.081-.208 3.055-.064 1.521.025 3.033.545 4.48.445 1.238 1.202 2.163 2.62 2.326.97.111 1.743-.333 2.456-.896a10.384 10.384 0 002.691-3.199c1.901-3.491 3.853-6.961 5.576-10.54 1.864-3.871 3.494-7.855 5.225-11.792l.286-.698c.409 1.607.694 3.181 1.219 4.671.61 1.729 1.365 3.417 2.187 5.058.389.775.344 1.278-.195 1.928-2.256 2.72-4.473 5.473-6.692 8.223-.491.607-.98 1.225-1.389 1.888a3.701 3.701 0 00-.48 1.364 1.737 1.737 0 001.383 1.971 9.661 9.661 0 002.708.193c3.097-.228 5.909-1.315 8.395-3.157 3.221-2.386 4.255-5.642 3.475-9.501-.211-1.047-.584-2.065-.947-3.074-.163-.455-.174-.774.123-1.198 2.575-3.677 4.775-7.578 6.821-11.569.081-.157.164-.314.306-.482.663 3.45 1.661 6.775 3.449 9.792-.912.879-1.815 1.676-2.632 2.554-1.799 1.934-3.359 4.034-4.173 6.595-.35 1.104-.619 2.226-.463 3.405.242 1.831 1.742 3.021 3.543 2.604 3.854-.892 7.181-2.708 9.612-5.925 1.636-2.166 1.785-4.582 1.1-7.113-.188-.688-.411-1.365-.651-2.154.951-.295 1.878-.649 2.837-.868 4.979-1.136 9.904-.938 14.702.86 2.801 1.05 5.064 2.807 6.406 5.571 1.639 3.379.733 6.585-2.452 8.721-.297.199-.637.356-.883.605a.869.869 0 00-.205.67c.021.123.346.277.533.275 1.047-.008 1.896-.557 2.711-1.121 2.042-1.413 3.532-3.314 3.853-5.817l.063-.188-.077-1.63c-.031-.094.023-.187.016-.258-.434-3.645-2.381-6.472-5.213-8.688-3.28-2.565-7.153-3.621-11.249-3.788a25.401 25.401 0 00-9.765 1.503c-.897.325-1.786.71-2.688 1.073-.121-.219-.251-.429-.358-.646-.926-1.896-2.048-3.708-2.296-5.882-.176-1.544-.392-3.086-.025-4.613.353-1.469.813-2.913 1.246-4.362.223-.746.066-1.164-.646-1.5a2.854 2.854 0 00-.786-.258c-1.75-.254-3.476-.109-5.171.384-.6.175-1.036.511-1.169 1.175-.076.381-.231.746-.339 1.122-.443 1.563-.757 3.156-1.473 4.645-1.794 3.735-3.842 7.329-5.938 10.897-.227.385-.466.763-.752 1.23-.736-1.54-1.521-2.922-1.759-4.542-.269-1.832-.481-3.661-.025-5.479.339-1.356.782-2.687 1.19-4.025.193-.636.104-.97-.472-1.305-.291-.169-.62-.319-.948-.368a11.643 11.643 0 00-5.354.438c-.543.176-.828.527-.994 1.087-.488 1.652-.904 3.344-1.589 4.915-2.774 6.36-5.628 12.687-8.479 19.013-.595 1.321-1.292 2.596-1.963 3.882-.17.326-.418.613-.63.919-.17-.201-.236-.339-.235-.477.005-.813-.092-1.65.063-2.436a172.189 172.189 0 011.578-7.099c.47-1.946 1.017-3.874 1.538-5.807.175-.647.178-1.252-.287-1.796-.781-.911-2.413-1.111-3.381-.409l-.428.242.083-.69c.204-1.479.245-2.953-.161-4.41-.506-1.816-1.802-2.861-3.686-2.803-.878.027-1.8.177-2.613.497-3.419 1.34-6.048 3.713-8.286 6.568a2.592 2.592 0 01-.757.654c-2.893 1.604-5.795 3.188-8.696 4.778l-3.229 1.769c-.866-.826-1.653-1.683-2.546-2.41-2.727-2.224-5.498-4.393-8.244-6.592-2.434-1.949-4.792-3.979-6.596-6.56-1.342-1.92-2.207-4.021-2.29-6.395-.105-3.025.753-5.789 2.293-8.362 1.97-3.292 4.657-5.934 7.611-8.327 3.125-2.53 6.505-4.678 10.008-6.639 4.901-2.743 9.942-5.171 15.347-6.774 5.542-1.644 11.165-2.585 16.965-1.929 2.28.258 4.494.78 6.527 1.895 1.557.853 2.834 1.97 3.428 3.716.586 1.718.568 3.459.162 5.204-.825 3.534-2.76 6.447-5.195 9.05-3.994 4.267-8.866 7.172-14.351 9.091a39.478 39.478 0 01-9.765 2.083c-2.729.229-5.401-.013-7.985-.962-1.711-.629-3.201-1.591-4.399-2.987-.214-.25-.488-.521-.887-.287-.391.23-.46.602-.329.979.219.626.421 1.278.762 1.838.857 1.405 2.107 2.424 3.483 3.298 2.643 1.681 5.597 2.246 8.66 2.377 4.648.201 9.183-.493 13.654-1.74 6.383-1.78 11.933-4.924 16.384-9.884 3.706-4.13 6.353-8.791 6.92-14.419.277-2.747-.018-5.438-1.304-7.944-1.395-2.715-3.613-4.734-6.265-6.125C68.756 18.179 64.588 17 60.286 17h-4.31c-5.21 0-10.247 1.493-15.143 3.274-3.706 1.349-7.34 2.941-10.868 4.703-7.683 3.839-14.838 8.468-20.715 14.833-2.928 3.171-5.407 6.67-6.833 10.79a40.494 40.494 0 00-1.111 3.746m27.839 36.013c-.333 4.459-2.354 8.074-5.657 11.002-1.858 1.646-3.989 2.818-6.471 3.23-.9.149-1.821.185-2.694-.188-1.245-.532-1.524-1.637-1.548-2.814-.037-1.876.62-3.572 1.521-5.186 1.176-2.104 2.9-3.708 4.741-5.206 2.9-2.361 6.046-4.359 9.268-6.245l.243-.1c.498 1.84.735 3.657.597 5.507zM54.303 70.98c-.235 1.424-.529 2.849-.945 4.229-1.438 4.777-3.285 9.406-5.282 13.973-.369.845-.906 1.616-1.373 2.417a1.689 1.689 0 01-.283.334c-.578.571-1.126.541-1.418-.206-.34-.868-.549-1.797-.729-2.716-.121-.617-.092-1.265-.13-1.897.039-4.494 1.41-8.578 3.736-12.38.959-1.568 2.003-3.062 3.598-4.054a6.27 6.27 0 011.595-.706c.85-.239 1.372.154 1.231 1.006zm17.164 21.868l6.169-7.203c.257 2.675-4.29 8.015-6.169 7.203zm19.703-4.847c-.436.25-.911.43-1.358.661-.409.212-.544-.002-.556-.354a2.385 2.385 0 01.093-.721c.833-2.938 2.366-5.446 4.647-7.486l.16-.082c1.085 3.035-.169 6.368-2.986 7.982z" />
  </symbol>

  <svg id="icon-sqlite" viewBox="0 0 128 128" height="72px" width="72px">
    <defs>
      <linearGradient id="sqlite-original-a" x1="-15.615" x2="-6.741" y1="-9.108" y2="-9.108"
        gradientTransform="rotate(90 -90.486 64.634) scale(9.2712)" gradientUnits="userSpaceOnUse">
        <stop stop-color="#95d7f4" offset="0" />
        <stop stop-color="#0f7fcc" offset=".92" />
        <stop stop-color="#0f7fcc" offset="1" />
      </linearGradient>
    </defs>
    <path
      d="M69.5 99.176c-.059-.73-.094-1.2-.094-1.2S67.2 83.087 64.57 78.642c-.414-.707.043-3.594 1.207-7.88.68 1.169 3.54 6.192 4.118 7.81.648 1.824.78 2.347.78 2.347s-1.57-8.082-4.144-12.797a162.286 162.286 0 012.004-6.265c.973 1.71 3.313 5.859 3.828 7.3.102.293.192.543.27.774.023-.137.05-.274.074-.414-.59-2.504-1.75-6.86-3.336-10.082 3.52-18.328 15.531-42.824 27.84-53.754H16.9c-5.387 0-9.789 4.406-9.789 9.789v88.57c0 5.383 4.406 9.789 9.79 9.789h52.897a118.657 118.657 0 01-.297-14.652"
      fill="#0b7fcc" />
    <path
      d="M65.777 70.762c.68 1.168 3.54 6.188 4.117 7.809.649 1.824.781 2.347.781 2.347s-1.57-8.082-4.144-12.797a164.535 164.535 0 012.004-6.27c.887 1.567 2.922 5.169 3.652 6.872l.082-.961c-.648-2.496-1.633-5.766-2.898-8.328 3.242-16.871 13.68-38.97 24.926-50.898H16.899a6.94 6.94 0 00-6.934 6.933v82.11c17.527-6.731 38.664-12.88 56.855-12.614-.672-2.605-1.441-4.96-2.25-6.324-.414-.707.043-3.597 1.207-7.879"
      fill="url(#sqlite-original-a)" />
    <path
      d="M115.95 2.781c-5.5-4.906-12.164-2.933-18.734 2.899a44.347 44.347 0 00-2.914 2.859c-11.25 11.926-21.684 34.023-24.926 50.895 1.262 2.563 2.25 5.832 2.894 8.328.168.64.32 1.242.442 1.754.285 1.207.437 1.996.437 1.996s-.101-.383-.515-1.582c-.078-.23-.168-.484-.27-.773-.043-.125-.105-.274-.172-.434-.734-1.703-2.765-5.305-3.656-6.867-.762 2.25-1.437 4.36-2.004 6.265 2.578 4.715 4.149 12.797 4.149 12.797s-.137-.523-.782-2.347c-.578-1.621-3.441-6.64-4.117-7.809-1.164 4.281-1.625 7.172-1.207 7.88.809 1.362 1.574 3.722 2.25 6.323 1.524 5.867 2.586 13.012 2.586 13.012s.031.469.094 1.2a118.653 118.653 0 00.297 14.651c.504 6.11 1.453 11.363 2.664 14.172l.828-.449c-1.781-5.535-2.504-12.793-2.188-21.156.48-12.793 3.422-28.215 8.856-44.289 9.191-24.27 21.938-43.738 33.602-53.035-10.633 9.602-25.023 40.684-29.332 52.195-4.82 12.891-8.238 24.984-10.301 36.574 3.55-10.863 15.047-15.53 15.047-15.53s5.637-6.958 12.227-16.888c-3.95.903-10.43 2.442-12.598 3.352-3.2 1.344-4.067 1.8-4.067 1.8s10.371-6.312 19.27-9.171c12.234-19.27 25.562-46.648 12.141-58.621"
      fill="#003956" />
  </svg>

  <symbol id="icon-swagger" viewBox="0 0 128 128" height="72px" width="72px">
    <path fill="#85ea2d"
      d="M63.999 124.945c-33.607 0-60.95-27.34-60.95-60.949C3.05 30.388 30.392 3.048 64 3.048s60.95 27.342 60.95 60.95c0 33.607-27.343 60.946-60.95 60.946z" />
    <path fill="#173647"
      d="M40.3 43.311c-.198 2.19.072 4.454-.073 6.668-.173 2.217-.444 4.407-.888 6.596-.615 3.126-2.56 5.489-5.24 7.458 5.218 3.396 5.807 8.662 6.152 14.003.172 2.88.098 5.785.394 8.638.221 2.215 1.082 2.782 3.372 2.854.935.025 1.894 0 2.978 0v6.842c-6.768 1.156-12.354-.762-13.734-6.496a39.329 39.329 0 0 1-.836-6.4c-.148-2.287.097-4.577-.074-6.864-.492-6.277-1.305-8.393-7.308-8.689v-7.8c.441-.1.86-.174 1.302-.223 3.298-.172 4.701-1.182 5.414-4.43a37.512 37.512 0 0 0 .616-5.536c.247-3.569.148-7.21.763-10.754.86-5.094 4.01-7.556 9.254-7.852 1.476-.074 2.978 0 4.676 0v6.99c-.714.05-1.33.147-1.969.147-4.258-.148-4.48 1.304-4.8 4.848zm8.195 16.193h-.099c-2.462-.123-4.578 1.796-4.702 4.258-.122 2.485 1.797 4.603 4.259 4.724h.295c2.436.148 4.527-1.724 4.676-4.16v-.245c.05-2.486-1.944-4.527-4.43-4.577zm15.43 0c-2.386-.074-4.38 1.796-4.454 4.159 0 .149 0 .271.024.418 0 2.684 1.821 4.406 4.578 4.406 2.707 0 4.406-1.772 4.406-4.553-.025-2.682-1.823-4.455-4.554-4.43Zm15.801 0a4.596 4.596 0 0 0-4.676 4.454 4.515 4.515 0 0 0 4.528 4.528h.05c2.264.394 4.553-1.796 4.701-4.429.122-2.437-2.092-4.553-4.604-4.553Zm21.682.369c-2.855-.123-4.284-1.083-4.996-3.79a27.444 27.444 0 0 1-.811-5.292c-.198-3.298-.174-6.62-.395-9.918-.516-7.826-6.177-10.557-14.397-9.205v6.792c1.304 0 2.313 0 3.322.025 1.748.024 3.077.69 3.249 2.634.172 1.772.172 3.568.344 5.365.346 3.57.542 7.187 1.157 10.706.542 2.904 2.536 5.07 5.02 6.841-4.355 2.929-5.636 7.113-5.857 11.814-.122 3.223-.196 6.472-.368 9.721-.148 2.953-1.181 3.913-4.16 3.987-.835.024-1.648.098-2.583.148v6.964c1.748 0 3.347.1 4.946 0 4.971-.295 7.974-2.706 8.96-7.531.417-2.658.662-5.34.737-8.023.171-2.46.148-4.946.394-7.382.369-3.815 2.116-5.389 5.93-5.636a5.161 5.161 0 0 0 1.06-.245v-7.801c-.64-.074-1.084-.148-1.552-.173zM64 6.1c31.977 0 57.9 25.92 57.9 57.898 0 31.977-25.923 57.899-57.9 57.899-31.976 0-57.898-25.922-57.898-57.9C6.102 32.023 32.024 6.101 64 6.101m0-6.1C28.71 0 0 28.71 0 64c0 35.288 28.71 63.998 64 63.998 35.289 0 64-28.71 64-64S99.289.002 64 .002Z" />
  </symbol>

  <symbol id="icon-tailwindcss" viewBox="0 0 128 128" height="72px" width="72px">
    <path
      d="M64.004 25.602c-17.067 0-27.73 8.53-32 25.597 6.398-8.531 13.867-11.73 22.398-9.597 4.871 1.214 8.352 4.746 12.207 8.66C72.883 56.629 80.145 64 96.004 64c17.066 0 27.73-8.531 32-25.602-6.399 8.536-13.867 11.735-22.399 9.602-4.87-1.215-8.347-4.746-12.207-8.66-6.27-6.367-13.53-13.738-29.394-13.738zM32.004 64c-17.066 0-27.73 8.531-32 25.602C6.402 81.066 13.87 77.867 22.402 80c4.871 1.215 8.352 4.746 12.207 8.66 6.274 6.367 13.536 13.738 29.395 13.738 17.066 0 27.73-8.53 32-25.597-6.399 8.531-13.867 11.73-22.399 9.597-4.87-1.214-8.347-4.746-12.207-8.66C55.128 71.371 47.868 64 32.004 64zm0 0"
      fill="#38bdf8" />
  </symbol>

  <symbol id="icon-typescript" viewBox="0 0 128 128" height="72px" width="72px">
    <path fill="#fff" d="M22.67 47h99.67v73.67H22.67z" />
    <path data-name="original" fill="#007acc"
      d="M1.5 63.91v62.5h125v-125H1.5zm100.73-5a15.56 15.56 0 017.82 4.5 20.58 20.58 0 013 4c0 .16-5.4 3.81-8.69 5.85-.12.08-.6-.44-1.13-1.23a7.09 7.09 0 00-5.87-3.53c-3.79-.26-6.23 1.73-6.21 5a4.58 4.58 0 00.54 2.34c.83 1.73 2.38 2.76 7.24 4.86 8.95 3.85 12.78 6.39 15.16 10 2.66 4 3.25 10.46 1.45 15.24-2 5.2-6.9 8.73-13.83 9.9a38.32 38.32 0 01-9.52-.1 23 23 0 01-12.72-6.63c-1.15-1.27-3.39-4.58-3.25-4.82a9.34 9.34 0 011.15-.73L82 101l3.59-2.08.75 1.11a16.78 16.78 0 004.74 4.54c4 2.1 9.46 1.81 12.16-.62a5.43 5.43 0 00.69-6.92c-1-1.39-3-2.56-8.59-5-6.45-2.78-9.23-4.5-11.77-7.24a16.48 16.48 0 01-3.43-6.25 25 25 0 01-.22-8c1.33-6.23 6-10.58 12.82-11.87a31.66 31.66 0 019.49.26zm-29.34 5.24v5.12H56.66v46.23H45.15V69.26H28.88v-5a49.19 49.19 0 01.12-5.17C29.08 59 39 59 51 59h21.83z" />
  </symbol>

  <symbol id="icon-vscode" viewBox="0 0 128 128" height="72px" width="72px">
    <mask id="a" width="128" height="128" x="0" y="0" maskUnits="userSpaceOnUse" style="mask-type:alpha">
      <path fill="#fff" fill-rule="evenodd"
        d="M90.767 127.126a7.968 7.968 0 0 0 6.35-.244l26.353-12.681a8 8 0 0 0 4.53-7.209V21.009a8 8 0 0 0-4.53-7.21L97.117 1.12a7.97 7.97 0 0 0-9.093 1.548l-50.45 46.026L15.6 32.013a5.328 5.328 0 0 0-6.807.302l-7.048 6.411a5.335 5.335 0 0 0-.006 7.888L20.796 64 1.74 81.387a5.336 5.336 0 0 0 .006 7.887l7.048 6.411a5.327 5.327 0 0 0 6.807.303l21.974-16.68 50.45 46.025a7.96 7.96 0 0 0 2.743 1.793Zm5.252-92.183L57.74 64l38.28 29.058V34.943Z"
        clip-rule="evenodd" />
    </mask>
    <g mask="url(#a)">
      <path fill="#0065A9"
        d="M123.471 13.82 97.097 1.12A7.973 7.973 0 0 0 88 2.668L1.662 81.387a5.333 5.333 0 0 0 .006 7.887l7.052 6.411a5.333 5.333 0 0 0 6.811.303l103.971-78.875c3.488-2.646 8.498-.158 8.498 4.22v-.306a8.001 8.001 0 0 0-4.529-7.208Z" />
      <g filter="url(#b)">
        <path fill="#007ACC"
          d="m123.471 114.181-26.374 12.698A7.973 7.973 0 0 1 88 125.333L1.662 46.613a5.333 5.333 0 0 1 .006-7.887l7.052-6.411a5.333 5.333 0 0 1 6.811-.303l103.971 78.874c3.488 2.647 8.498.159 8.498-4.219v.306a8.001 8.001 0 0 1-4.529 7.208Z" />
      </g>
      <g filter="url(#c)">
        <path fill="#1F9CF0"
          d="M97.098 126.882A7.977 7.977 0 0 1 88 125.333c2.952 2.952 8 .861 8-3.314V5.98c0-4.175-5.048-6.266-8-3.313a7.977 7.977 0 0 1 9.098-1.549L123.467 13.8A8 8 0 0 1 128 21.01v85.982a8 8 0 0 1-4.533 7.21l-26.369 12.681Z" />
      </g>
      <path fill="url(#d)" fill-rule="evenodd"
        d="M90.69 127.126a7.968 7.968 0 0 0 6.349-.244l26.353-12.681a8 8 0 0 0 4.53-7.21V21.009a8 8 0 0 0-4.53-7.21L97.039 1.12a7.97 7.97 0 0 0-9.093 1.548l-50.45 46.026-21.974-16.68a5.328 5.328 0 0 0-6.807.302l-7.048 6.411a5.336 5.336 0 0 0-.006 7.888L20.718 64 1.662 81.386a5.335 5.335 0 0 0 .006 7.888l7.048 6.411a5.328 5.328 0 0 0 6.807.303l21.975-16.681 50.45 46.026a7.959 7.959 0 0 0 2.742 1.793Zm5.252-92.184L57.662 64l38.28 29.057V34.943Z"
        clip-rule="evenodd" opacity="0.25" style="mix-blend-mode:overlay" />
    </g>
    <defs>
      <filter id="b" width="144.744" height="113.408" x="-8.41115" y="22.5944" color-interpolation-filters="sRGB"
        filterUnits="userSpaceOnUse">
        <feFlood flood-opacity="0" result="BackgroundImageFix" />
        <feColorMatrix in="SourceAlpha" result="hardAlpha" values="0 0 0 0 0 0 0 0 0 0 0 0 0 0 0 0 0 0 127 0" />
        <feOffset />
        <feGaussianBlur stdDeviation="4.16667" />
        <feColorMatrix values="0 0 0 0 0 0 0 0 0 0 0 0 0 0 0 0 0 0 0.25 0" />
        <feBlend in2="BackgroundImageFix" mode="overlay" result="effect1_dropShadow_1_36" />
        <feBlend in="SourceGraphic" in2="effect1_dropShadow_1_36" result="shape" />
      </filter>
      <filter id="c" width="56.6667" height="144.007" x="79.6667" y="-8.0035" color-interpolation-filters="sRGB"
        filterUnits="userSpaceOnUse">
        <feFlood flood-opacity="0" result="BackgroundImageFix" />
        <feColorMatrix in="SourceAlpha" result="hardAlpha" values="0 0 0 0 0 0 0 0 0 0 0 0 0 0 0 0 0 0 127 0" />
        <feOffset />
        <feGaussianBlur stdDeviation="4.16667" />
        <feColorMatrix values="0 0 0 0 0 0 0 0 0 0 0 0 0 0 0 0 0 0 0.25 0" />
        <feBlend in2="BackgroundImageFix" mode="overlay" result="effect1_dropShadow_1_36" />
        <feBlend in="SourceGraphic" in2="effect1_dropShadow_1_36" result="shape" />
      </filter>
      <linearGradient id="d" x1="63.9222" x2="63.9222" y1="0.329902" y2="127.67" gradientUnits="userSpaceOnUse">
        <stop stop-color="#fff" />
        <stop offset="1" stop-color="#fff" stop-opacity="0" />
      </linearGradient>
    </defs>
  </symbol>

  <symbol id="icon-webpack" viewBox="0 0 128 128" height="72px" width="72px">
    <path fill="#8ed6fb"
      d="M117.29 98.1L66.24 127v-22.51L98 87l19.29 11.1zm3.5-3.16V34.55l-18.68 10.8v38.81l18.67 10.77zM10.71 98.1l51 28.88v-22.49L29.94 87zm-3.5-3.16V34.55l18.68 10.8v38.81zm2.19-64.3L61.76 1v21.76L28.21 41.21l-.27.15zm109.18 0L66.24 1v21.76L99.79 41.2l.27.15 18.54-10.71z" />
    <path fill="#1c78c0"
      d="M61.76 99.37L30.37 82.1V47.92L61.76 66zm4.48 0l31.39-17.25v-34.2L66.24 66zM32.5 44L64 26.66 95.5 44 64 62.16 32.5 44z" />
  </symbol>

  <symbol id="icon-wordpress" viewBox="0 0 128 128" height="72px" width="72px">
    <path fill-rule="evenodd" clip-rule="evenodd" fill="#494949"
      d="M64.094 126.224c34.275-.052 62.021-27.933 62.021-62.325 0-33.833-27.618-61.697-60.613-62.286C30.85.995 1.894 29.113 1.885 63.21c-.01 35.079 27.612 63.064 62.209 63.014zM63.993 4.63c32.907-.011 59.126 26.725 59.116 60.28-.011 31.679-26.925 58.18-59.092 58.187-32.771.007-59.125-26.563-59.124-59.608.002-32.193 26.766-58.848 59.1-58.859zM39.157 35.896c.538 1.793-.968 2.417-2.569 2.542-1.685.13-3.369.257-5.325.406 6.456 19.234 12.815 38.183 19.325 57.573.464-.759.655-.973.739-1.223 3.574-10.682 7.168-21.357 10.651-32.069.318-.977.16-2.271-.188-3.275-1.843-5.32-4.051-10.524-5.667-15.908-1.105-3.686-2.571-6.071-6.928-5.644-.742.073-1.648-1.524-2.479-2.349 1.005-.6 2.003-1.704 3.017-1.719a849.593 849.593 0 0126.618.008c1.018.017 2.016 1.15 3.021 1.765-.88.804-1.639 2.01-2.668 2.321-1.651.498-3.482.404-5.458.58l19.349 57.56c2.931-9.736 5.658-18.676 8.31-27.639 2.366-8.001.956-15.473-3.322-22.52-1.286-2.119-2.866-4.175-3.595-6.486-.828-2.629-1.516-5.622-1.077-8.259.745-4.469 4.174-6.688 8.814-7.113C74.333.881 34.431 9.317 19.728 34.922c5.66-.261 11.064-.604 16.472-.678 1.022-.013 2.717.851 2.957 1.652zm10.117 77.971c-.118.345-.125.729-.218 1.302 10.943 3.034 21.675 2.815 32.659-.886l-16.78-45.96c-5.37 15.611-10.52 30.575-15.661 45.544zm-8.456-2.078l-25.281-69.35c-11.405 22.278-2.729 56.268 25.281 69.35zm76.428-44.562c.802-10.534-2.832-25.119-5.97-27.125-.35 3.875-.106 8.186-1.218 12.114-2.617 9.255-5.817 18.349-8.899 27.468-3.35 9.912-6.832 19.779-10.257 29.666 16.092-9.539 24.935-23.618 26.344-42.123z" />
  </symbol>

</svg>