<svg width="940" height="940" viewBox="0 0 940 940" fill="none" xmlns="http://www.w3.org/2000/svg">
  <path
    d="M85.9998 0.666504C38.6398 0.666504 0.666504 38.6398 0.666504 85.9998V683.333C0.666504 730.693 38.6398 768.667 85.9998 768.667H598L342 0.666504H85.9998ZM484.507 171.333L512.667 256.666H854V854H486.213L513.946 939.333H854C901.36 939.333 939.333 901.36 939.333 854V256.666C939.333 209.306 901.36 171.333 854 171.333H484.507ZM292.178 212.5L418.5 551H344.369L260 294.5L217 425.031H302.935L320.851 479.5H199L175.5 551H101.5L227.5 212.5H292.178ZM640.667 384.667V427.333H569.84L583.493 470H726C714.48 496.027 710.213 519.92 675.227 560.88C658.16 540.826 644.507 523.333 640.667 512.667H598C603.12 531.013 624.453 559.6 650.053 588.613C644.506 594.16 636.826 601.413 630 607.386L641.946 643.227C652.613 633.84 663.28 624.026 673.946 614.213C717.466 659.866 763.547 702.107 763.547 702.107L787.44 676.506C787.44 676.506 741.786 631.706 700.826 587.333C727.706 557.466 751.6 521.2 768.667 470H811.333V427.333H683.333V384.667H640.667Z"
    fill="white" />
</svg>