<svg version="1.2" xmlns="http://www.w3.org/2000/svg" viewBox="0 0 512 512" width="56px" height="56px">
  <path
    d="m161.8 5c0.1 0 0.9 0.3 1.9 0.8 0.9 0.4 4.8 4.5 8.7 9.2 3.9 4.7 18.2 21.7 56.6 67l157.5 0.5 4.4 2.5c2.4 1.4 5.7 4.1 7.3 6 1.9 2.4 3.1 5.4 3.8 9.5 0.6 3.8 1 56.4 1 278.5l-102 96h-101.3c-87.3 0-101.9-0.2-106.5-1.5-2.8-0.8-6.4-2.5-8-3.8-1.5-1.3-3.6-4.6-4.7-7.3-1.9-4.8-1.9-9-2.5-180.9-0.3-96.8-0.2-177.8 0.2-180 0.4-2.2 2-6 3.5-8.4 1.5-2.5 4.8-5.9 11.5-10.6l76.9-1-19.5-23c-10.7-12.6-19.8-23.8-20.1-24.7-0.4-1.4 3.4-5.1 15.2-15.3 8.7-7.4 15.9-13.4 16-13.5zm-50.7 154.3c0 24.8 0.3 98.9 0.8 164.5l0.7 119.2h173c1.4-52.2 1.8-57.7 3.2-61.2 1-2.3 3.8-5.9 6.3-8 2.5-2.1 6.5-4.6 9-5.5 3.8-1.4 9.5-1.8 34.7-2l30.3-0.3v-252h-115c1.4 3.5 5.7 13.9 10.5 25.5 4.8 11.6 10.7 24.4 13.1 28.5 2.4 4.1 4.4 8.1 4.4 8.7 0 0.7-0.8 1.3-1.8 1.3-0.9-0.1-4.8-2.5-8.7-5.4-3.9-2.9-17.5-12-30.4-20.2l-23.4-14.9-19.7-23.5h-87zm95.8 67.8c3.1 0.4 8.2 1.8 11.2 3.1 3 1.4 7.4 4.5 9.8 6.9 2.4 2.5 5.4 6.7 6.7 9.5 1.3 2.7 2.7 6.1 3 7.5 0.6 2.4 0.3 2.5-7.2 4.2-4.3 1-8.1 1.7-8.6 1.7-0.4 0-1.6-2.1-2.8-4.7-1.1-2.6-3-5.8-4.2-7.1-1.2-1.3-3.6-3-5.2-3.8-1.7-0.9-5.6-1.5-9-1.5-3.3 0-7.4 0.5-9 1.2-1.7 0.6-4.2 2-5.8 3-1.5 1.1-3.8 4.2-5.2 7-1.4 2.7-2.9 8-3.5 11.7-0.6 4.3-0.6 9.2 0 13.5 0.6 3.7 1.7 8.4 2.6 10.5 0.8 2.1 2.7 5 4.2 6.6 1.5 1.6 4.5 3.7 6.7 4.8 2.3 1 6.3 1.8 9.5 1.8 3.9 0.1 6.8-0.6 10-2.3 2.5-1.2 5.5-3.8 6.8-5.7 1.3-1.9 3-5.7 5.3-13.4l17 4-0.6 3.5c-0.4 1.9-1.7 5.7-3 8.5-1.3 2.7-4.3 7.1-6.7 9.8-2.7 3.1-6.7 6-10.8 8-6.1 3-7.1 3.1-18 3.1-10.4 0-12.1-0.2-17.5-2.7-3.4-1.5-8.1-4.8-10.7-7.5-2.6-2.6-5.8-7-7.2-9.7-1.4-2.8-3.2-7.7-4-11-1-3.5-1.6-10.2-1.6-15.8 0-6.6 0.6-11.6 1.8-15.5 1-3.2 2.9-7.8 4.4-10.2 1.4-2.5 4.8-6.6 7.4-9 2.7-2.4 7.4-5.5 10.4-6.9 3-1.3 8.3-2.7 11.8-3 3.4-0.4 8.8-0.4 12-0.1zm38.5 1c5.4 0 9.7 0.1 9.7 0.2 0 0.1 5 14.2 11.1 31.3 6.1 17 11.5 31.6 11.9 32.5 0.8 1.3 0.9 1.3 1.4 0 0.3-0.9 4.6-12.6 9.6-26.1 5-13.4 10.2-27.5 14-37.9h9c4.9 0 9 0.3 9 0.7 0 0.4-7.8 20.6-34.6 88.8l-7.7 0.2c-6.5 0.2-7.8 0-8.6-1.5-0.5-1-8.1-20.4-16.9-43.3-8.8-22.8-16.4-42.2-16.8-43.2-0.6-1.6 0.1-1.7 8.9-1.7z"
    fill="white" />
</svg>
