<svg width="52" height="48" viewBox="0 0 52 48" fill="none" xmlns="http://www.w3.org/2000/svg">
  <path d="M14.75 21.5C14.45 21.5 14.1875 21.6125 14.0125 21.8125C13.8375 22 13.7625 22.275 13.8 22.575L14.425 26.3125C14.525 27.125 15.25 27.75 16 27.75H19.75C20.55 27.75 21.45 27.05 21.625 26.275L22.95 22.2875C23 22.125 22.9625 21.8875 22.875 21.7375C22.7375 21.5875 22.525 21.5 22.25 21.5H14.75ZM19.75 30.25H16C13.975 30.25 12.2 28.675 11.95 26.675L11.325 22.9375C11.1875 21.875 11.4875 20.875 12.1375 20.15C12.7875 19.425 13.7375 19 14.75 19H22.25C23.2875 19 24.225 19.4375 24.825 20.2C24.9625 20.3875 25.0875 20.5875 25.1875 20.8125C25.725 20.7 26.275 20.7 26.8 20.8125C26.9 20.5875 27.025 20.3875 27.175 20.2C27.7625 19.4375 28.7 19 29.75 19H37.25C38.2625 19 39.2125 19.425 39.8625 20.15C40.5 20.875 40.8 21.875 40.675 22.8875L40.0375 26.725C39.8 28.675 38.0125 30.25 36 30.25H32.25C30.3 30.25 28.4 28.7625 27.925 26.875L26.8 23.4875C26.325 23.1375 25.6625 23.1375 25.1875 23.4875L24.0375 26.9625C23.5875 28.775 21.7 30.25 19.75 30.25ZM29.75 21.5C29.475 21.5 29.2625 21.5875 29.125 21.7375C29.025 21.8875 29 22.125 29.0625 22.375L30.325 26.1875C30.55 27.05 31.45 27.75 32.25 27.75H36C36.7375 27.75 37.475 27.125 37.5625 26.3625L38.2 22.525C38.2375 22.275 38.1625 22 37.9875 21.8125C37.8943 21.7104 37.7801 21.6297 37.6528 21.5758C37.5256 21.5218 37.3882 21.496 37.25 21.5H29.75Z" fill="black"/>
  <path d="M23 24.2C23.5304 24.2 24.0391 24.4107 24.4142 24.7858C24.7893 25.1609 25 25.6696 25 26.2C25 26.57 24.89 26.91 24.72 27.2C24.72 27.2 24 27 23 27C22 27 21.28 27.2 21.28 27.2C21.11 26.91 21 26.57 21 26.2C21 25.6696 21.2107 25.1609 21.5858 24.7858C21.9609 24.4107 22.4696 24.2 23 24.2ZM29 24.2C30.11 24.2 31 25.09 31 26.2C31 26.57 30.89 26.91 30.72 27.2C30.72 27.2 30 27 29 27C28 27 27.28 27.2 27.28 27.2C27.11 26.91 27 26.57 27 26.2C27 25.09 27.89 24.2 29 24.2ZM26 37.9C27.8139 37.9014 29.5827 37.3352 31.0586 36.2808C32.5345 35.2263 33.6435 33.7364 34.23 32.02L32.91 31.56C31.9 34.52 29.12 36.5 26 36.5C22.88 36.5 20.1 34.52 19.09 31.56L17.77 32.02C18.3565 33.7364 19.4655 35.2263 20.9414 36.2808C22.4173 37.3352 24.1861 37.9014 26 37.9Z" fill="black"/>
  <path d="M1.47727 26.7841V25.0227C3.05871 25.0227 4.16193 24.6913 4.78693 24.0284C5.4214 23.3655 5.73864 22.2576 5.73864 20.7045V16.1591C5.73864 14.8523 5.86174 13.7206 6.10795 12.7642C6.36364 11.8078 6.77557 11.017 7.34375 10.392C7.91193 9.76705 8.66951 9.30303 9.61648 9C10.5634 8.69697 11.733 8.54545 13.125 8.54545V11.3295C12.0265 11.3295 11.16 11.5 10.5256 11.8409C9.90057 12.1818 9.45549 12.7121 9.19034 13.4318C8.93466 14.142 8.80682 15.0511 8.80682 16.1591V21.8409C8.80682 22.5795 8.70739 23.2519 8.50852 23.858C8.31913 24.464 7.96402 24.9848 7.44318 25.4205C6.92235 25.8561 6.17898 26.1922 5.21307 26.429C4.25663 26.6657 3.01136 26.7841 1.47727 26.7841ZM13.125 44.9091C11.733 44.9091 10.5634 44.7576 9.61648 44.4545C8.66951 44.1515 7.91193 43.6875 7.34375 43.0625C6.77557 42.4375 6.36364 41.6468 6.10795 40.6903C5.86174 39.7339 5.73864 38.6023 5.73864 37.2955V32.75C5.73864 31.197 5.4214 30.089 4.78693 29.4261C4.16193 28.7633 3.05871 28.4318 1.47727 28.4318V26.6705C3.01136 26.6705 4.25663 26.7888 5.21307 27.0256C6.17898 27.2623 6.92235 27.5985 7.44318 28.0341C7.96402 28.4697 8.31913 28.9905 8.50852 29.5966C8.70739 30.2027 8.80682 30.875 8.80682 31.6136V37.2955C8.80682 38.4034 8.93466 39.3125 9.19034 40.0227C9.45549 40.733 9.90057 41.2585 10.5256 41.5994C11.16 41.9498 12.0265 42.125 13.125 42.125V44.9091ZM1.47727 28.4318V25.0227H4.82955V28.4318H1.47727ZM50.0036 26.6705V28.4318C48.4221 28.4318 47.3142 28.7633 46.6797 29.4261C46.0547 30.089 45.7422 31.197 45.7422 32.75V37.2955C45.7422 38.6023 45.6143 39.7339 45.3587 40.6903C45.1125 41.6468 44.7053 42.4375 44.1371 43.0625C43.5689 43.6875 42.8113 44.1515 41.8643 44.4545C40.9174 44.7576 39.7479 44.9091 38.3558 44.9091V42.125C39.4543 42.125 40.3161 41.9498 40.9411 41.5994C41.5755 41.2585 42.0206 40.733 42.2763 40.0227C42.5414 39.3125 42.674 38.4034 42.674 37.2955V31.6136C42.674 30.875 42.7687 30.2027 42.9581 29.5966C43.157 28.9905 43.5168 28.4697 44.0376 28.0341C44.5585 27.5985 45.2971 27.2623 46.2536 27.0256C47.2195 26.7888 48.4695 26.6705 50.0036 26.6705ZM38.3558 8.54545C39.7479 8.54545 40.9174 8.69697 41.8643 9C42.8113 9.30303 43.5689 9.76705 44.1371 10.392C44.7053 11.017 45.1125 11.8078 45.3587 12.7642C45.6143 13.7206 45.7422 14.8523 45.7422 16.1591V20.7045C45.7422 22.2576 46.0547 23.3655 46.6797 24.0284C47.3142 24.6913 48.4221 25.0227 50.0036 25.0227V26.7841C48.4695 26.7841 47.2195 26.6657 46.2536 26.429C45.2971 26.1922 44.5585 25.8561 44.0376 25.4205C43.5168 24.9848 43.157 24.464 42.9581 23.858C42.7687 23.2519 42.674 22.5795 42.674 21.8409V16.1591C42.674 15.0511 42.5414 14.142 42.2763 13.4318C42.0206 12.7121 41.5755 12.1818 40.9411 11.8409C40.3161 11.5 39.4543 11.3295 38.3558 11.3295V8.54545ZM50.0036 25.0227V28.4318H46.6513V25.0227H50.0036Z" fill="black"/>
</svg>
