<svg xmlns="http://www.w3.org/2000/svg" style="display: none;">
  <symbol id="e-mail" viewBox="128 128 256 256" fill="currentColor">
    <path d="M256,176H128v160h128h128V176H256z M256,192h89.719L256,255.75L166.281,192H256z M144,196.531l54.5,36.859L144,292.812 V196.531z M256,320h-92.406l45.562-79.422L256,272.25l46.844-31.672L348.406,320H256z M368,292.812l-54.5-59.422l54.5-36.859 V292.812z" />
  </symbol>

  <symbol id="github" viewBox="0 0 16 16" fill="currentColor">
    <path d="M8 0c4.42 0 8 3.58 8 8a8.013 8.013 0 0 1-5.45 7.59c-.4.08-.55-.17-.55-.38 0-.27.01-1.13.01-2.2 0-.75-.25-1.23-.54-1.48 1.78-.2 3.65-.88 3.65-3.95 0-.88-.31-1.59-.82-2.15.08-.2.36-1.02-.08-2.12 0 0-.67-.22-2.2.82-.64-.18-1.32-.27-2-.27-.68 0-1.36.09-2 .27-1.53-1.03-2.2-.82-2.2-.82-.44 1.1-.16 1.92-.08 2.12-.51.56-.82 1.28-.82 2.15 0 3.06 1.86 3.75 3.64 3.95-.23.2-.44.55-.51 1.07-.46.21-1.61.55-2.33-.66-.15-.24-.6-.83-1.23-.82-.67.01-.27.38.01.53.34.19.73.9.82 1.13.16.45.68 1.31 2.69.94 0 .67.01 1.3.01 1.49 0 .21-.15.45-.55.38A7.995 7.995 0 0 1 0 8c0-4.42 3.58-8 8-8Z" />
  </symbol>

  <symbol id="linkedin" viewBox="0 0 24 24" fill="currentColor">
    <path d="M12 0a12 12 0 000 24a12 12 0 000-24zM8 19H5v-9h3zM6.5 8.25A1.75 1.75 0 118.3 6.5a1.78 1.78 0 01-1.8 1.75zM19 19h-3v-4.74c0-1.42-.6-1.93-1.38-1.93A1.74 1.74 0 0013 14.19a.66.66 0 000 .14V19h-3v-9h2.9v1.3a3.11 3.11 0 012.7-1.4c1.55 0 3.36.86 3.36 3.66z" />
  </symbol>

  <symbol id="whatsapp" viewBox="0 0 512 512">
    <path style="fill:#EDEDED;" d="M0,512l35.31-128C12.359,344.276,0,300.138,0,254.234C0,114.759,114.759,0,255.117,0
    S512,114.759,512,254.234S395.476,512,255.117,512c-44.138,0-86.51-14.124-124.469-35.31L0,512z" />
    <path style="fill:#55CD6C;" d="M137.71,430.786l7.945,4.414c32.662,20.303,70.621,32.662,110.345,32.662
    c115.641,0,211.862-96.221,211.862-213.628S371.641,44.138,255.117,44.138S44.138,137.71,44.138,254.234
    c0,40.607,11.476,80.331,32.662,113.876l5.297,7.945l-20.303,74.152L137.71,430.786z" />
    <path style="fill:#FEFEFE;" d="M187.145,135.945l-16.772-0.883c-5.297,0-10.593,1.766-14.124,5.297
    c-7.945,7.062-21.186,20.303-24.717,37.959c-6.179,26.483,3.531,58.262,26.483,90.041s67.09,82.979,144.772,105.048
    c24.717,7.062,44.138,2.648,60.028-7.062c12.359-7.945,20.303-20.303,22.952-33.545l2.648-12.359
    c0.883-3.531-0.883-7.945-4.414-9.71l-55.614-25.6c-3.531-1.766-7.945-0.883-10.593,2.648l-22.069,28.248
    c-1.766,1.766-4.414,2.648-7.062,1.766c-15.007-5.297-65.324-26.483-92.69-79.448c-0.883-2.648-0.883-5.297,0.883-7.062
    l21.186-23.834c1.766-2.648,2.648-6.179,1.766-8.828l-25.6-57.379C193.324,138.593,190.676,135.945,187.145,135.945" />
  </symbol>

  <symbol id="go-to-top" viewBox="0 10 100 100" fill="currentColor">
    <polygon points="50,10 100,100 50,80 0,100" />
  </symbol>

  <symbol id="settings" viewBox="0 0 209 199" fill="currentColor">
    <path d="M135.5 0C135.5 0 121 13 105 13.5C89 14 73 0 73 0C73 0 59.4999 4 52.4999 8.5C45.4999 13 34 22.5 34 22.5C34 22.5 38.5 39.5 31 55.5C23.5 71.5 1.99992 77.5 1.99992 77.5C0.829313 91.6557 0.273407 101.858 1.4999 121C29.4806 133.129 38 146 34.9998 176C47.7593 188.915 59.4042 193.97 73.9999 198.5C92 182 115.5 181.5 135.5 199C151.551 193.36 163.017 187.961 174 175.5C169.5 145.5 184 130 206.5 122C209.068 105.411 208.503 92.5899 206 76C206 76 189 72.5 179.5 58C170 43.5 174.5 22 174.5 22C174.5 22 158.5 9.5 154.5 7.5C150.5 5.5 135.5 0 135.5 0ZM168.5 99.5C168.5 134 138 167.5 105 167.5C73.9999 167.5 41 140.5 41 99.5C41 67 68.5 34.5 105 34.5C141.5 34.5 168.5 71 168.5 99.5Z"/>
    <path d="M100 83.4838C98.6129 71.862 94.6962 67.5768 85.0909 63.3998V55.2684C83.6944 50.3037 75.8938 48.8943 73.9091 55.2682V63.3998C63.1209 68.0287 59.8389 73.3221 59 83.4838C59.9271 93.3457 63.0148 98.3214 73.9091 103.433L73.9091 142.84C74.5303 149.72 84.4697 149.72 84.9411 142.84L85.0909 103.433C95.2036 98.606 98.6447 94.3543 100 83.4838ZM79.5 92.1733C74.9767 92.1733 70.3689 87.8584 70.5845 83.4838C70.8861 77.3632 75.7727 74.659 79.5 74.659C83.8926 74.659 88.1729 78.0497 88.197 83.4838C88.2211 88.918 83.2366 92.1733 79.5 92.1733Z"/>
    <path d="M149 115.516C147.613 127.138 143.696 131.423 134.091 135.6V143.732C132.694 148.696 124.894 150.106 122.909 143.732V135.6C112.121 130.971 108.839 125.678 108 115.516C108.927 105.654 112.015 100.679 122.909 95.5675L122.909 56.1603C123.53 49.2799 133.47 49.2799 133.941 56.1603L134.091 95.5675C144.204 100.394 147.645 104.646 149 115.516ZM128.5 106.827C123.977 106.827 119.369 111.142 119.585 115.516C119.886 121.637 124.773 124.341 128.5 124.341C132.893 124.341 137.173 120.95 137.197 115.516C137.221 110.082 132.237 106.827 128.5 106.827Z"/>
  </symbol>

  <symbol id="logo" viewBox="0 0 52 48" fill="currentColor">
    <path d="M14.75 21.5C14.45 21.5 14.1875 21.6125 14.0125 21.8125C13.8375 22 13.7625 22.275 13.8 22.575L14.425 26.3125C14.525 27.125 15.25 27.75 16 27.75H19.75C20.55 27.75 21.45 27.05 21.625 26.275L22.95 22.2875C23 22.125 22.9625 21.8875 22.875 21.7375C22.7375 21.5875 22.525 21.5 22.25 21.5H14.75ZM19.75 30.25H16C13.975 30.25 12.2 28.675 11.95 26.675L11.325 22.9375C11.1875 21.875 11.4875 20.875 12.1375 20.15C12.7875 19.425 13.7375 19 14.75 19H22.25C23.2875 19 24.225 19.4375 24.825 20.2C24.9625 20.3875 25.0875 20.5875 25.1875 20.8125C25.725 20.7 26.275 20.7 26.8 20.8125C26.9 20.5875 27.025 20.3875 27.175 20.2C27.7625 19.4375 28.7 19 29.75 19H37.25C38.2625 19 39.2125 19.425 39.8625 20.15C40.5 20.875 40.8 21.875 40.675 22.8875L40.0375 26.725C39.8 28.675 38.0125 30.25 36 30.25H32.25C30.3 30.25 28.4 28.7625 27.925 26.875L26.8 23.4875C26.325 23.1375 25.6625 23.1375 25.1875 23.4875L24.0375 26.9625C23.5875 28.775 21.7 30.25 19.75 30.25ZM29.75 21.5C29.475 21.5 29.2625 21.5875 29.125 21.7375C29.025 21.8875 29 22.125 29.0625 22.375L30.325 26.1875C30.55 27.05 31.45 27.75 32.25 27.75H36C36.7375 27.75 37.475 27.125 37.5625 26.3625L38.2 22.525C38.2375 22.275 38.1625 22 37.9875 21.8125C37.8943 21.7104 37.7801 21.6297 37.6528 21.5758C37.5256 21.5218 37.3882 21.496 37.25 21.5H29.75Z" />
    <path d="M23 24.2C23.5304 24.2 24.0391 24.4107 24.4142 24.7858C24.7893 25.1609 25 25.6696 25 26.2C25 26.57 24.89 26.91 24.72 27.2C24.72 27.2 24 27 23 27C22 27 21.28 27.2 21.28 27.2C21.11 26.91 21 26.57 21 26.2C21 25.6696 21.2107 25.1609 21.5858 24.7858C21.9609 24.4107 22.4696 24.2 23 24.2ZM29 24.2C30.11 24.2 31 25.09 31 26.2C31 26.57 30.89 26.91 30.72 27.2C30.72 27.2 30 27 29 27C28 27 27.28 27.2 27.28 27.2C27.11 26.91 27 26.57 27 26.2C27 25.09 27.89 24.2 29 24.2ZM26 37.9C27.8139 37.9014 29.5827 37.3352 31.0586 36.2808C32.5345 35.2263 33.6435 33.7364 34.23 32.02L32.91 31.56C31.9 34.52 29.12 36.5 26 36.5C22.88 36.5 20.1 34.52 19.09 31.56L17.77 32.02C18.3565 33.7364 19.4655 35.2263 20.9414 36.2808C22.4173 37.3352 24.1861 37.9014 26 37.9Z" />
    <path d="M1.47727 26.7841V25.0227C3.05871 25.0227 4.16193 24.6913 4.78693 24.0284C5.4214 23.3655 5.73864 22.2576 5.73864 20.7045V16.1591C5.73864 14.8523 5.86174 13.7206 6.10795 12.7642C6.36364 11.8078 6.77557 11.017 7.34375 10.392C7.91193 9.76705 8.66951 9.30303 9.61648 9C10.5634 8.69697 11.733 8.54545 13.125 8.54545V11.3295C12.0265 11.3295 11.16 11.5 10.5256 11.8409C9.90057 12.1818 9.45549 12.7121 9.19034 13.4318C8.93466 14.142 8.80682 15.0511 8.80682 16.1591V21.8409C8.80682 22.5795 8.70739 23.2519 8.50852 23.858C8.31913 24.464 7.96402 24.9848 7.44318 25.4205C6.92235 25.8561 6.17898 26.1922 5.21307 26.429C4.25663 26.6657 3.01136 26.7841 1.47727 26.7841ZM13.125 44.9091C11.733 44.9091 10.5634 44.7576 9.61648 44.4545C8.66951 44.1515 7.91193 43.6875 7.34375 43.0625C6.77557 42.4375 6.36364 41.6468 6.10795 40.6903C5.86174 39.7339 5.73864 38.6023 5.73864 37.2955V32.75C5.73864 31.197 5.4214 30.089 4.78693 29.4261C4.16193 28.7633 3.05871 28.4318 1.47727 28.4318V26.6705C3.01136 26.6705 4.25663 26.7888 5.21307 27.0256C6.17898 27.2623 6.92235 27.5985 7.44318 28.0341C7.96402 28.4697 8.31913 28.9905 8.50852 29.5966C8.70739 30.2027 8.80682 30.875 8.80682 31.6136V37.2955C8.80682 38.4034 8.93466 39.3125 9.19034 40.0227C9.45549 40.733 9.90057 41.2585 10.5256 41.5994C11.16 41.9498 12.0265 42.125 13.125 42.125V44.9091ZM1.47727 28.4318V25.0227H4.82955V28.4318H1.47727ZM50.0036 26.6705V28.4318C48.4221 28.4318 47.3142 28.7633 46.6797 29.4261C46.0547 30.089 45.7422 31.197 45.7422 32.75V37.2955C45.7422 38.6023 45.6143 39.7339 45.3587 40.6903C45.1125 41.6468 44.7053 42.4375 44.1371 43.0625C43.5689 43.6875 42.8113 44.1515 41.8643 44.4545C40.9174 44.7576 39.7479 44.9091 38.3558 44.9091V42.125C39.4543 42.125 40.3161 41.9498 40.9411 41.5994C41.5755 41.2585 42.0206 40.733 42.2763 40.0227C42.5414 39.3125 42.674 38.4034 42.674 37.2955V31.6136C42.674 30.875 42.7687 30.2027 42.9581 29.5966C43.157 28.9905 43.5168 28.4697 44.0376 28.0341C44.5585 27.5985 45.2971 27.2623 46.2536 27.0256C47.2195 26.7888 48.4695 26.6705 50.0036 26.6705ZM38.3558 8.54545C39.7479 8.54545 40.9174 8.69697 41.8643 9C42.8113 9.30303 43.5689 9.76705 44.1371 10.392C44.7053 11.017 45.1125 11.8078 45.3587 12.7642C45.6143 13.7206 45.7422 14.8523 45.7422 16.1591V20.7045C45.7422 22.2576 46.0547 23.3655 46.6797 24.0284C47.3142 24.6913 48.4221 25.0227 50.0036 25.0227V26.7841C48.4695 26.7841 47.2195 26.6657 46.2536 26.429C45.2971 26.1922 44.5585 25.8561 44.0376 25.4205C43.5168 24.9848 43.157 24.464 42.9581 23.858C42.7687 23.2519 42.674 22.5795 42.674 21.8409V16.1591C42.674 15.0511 42.5414 14.142 42.2763 13.4318C42.0206 12.7121 41.5755 12.1818 40.9411 11.8409C40.3161 11.5 39.4543 11.3295 38.3558 11.3295V8.54545ZM50.0036 25.0227V28.4318H46.6513V25.0227H50.0036Z" />
  </symbol>

  <symbol id="cv" viewBox="0 0 178 178" fill="currentColor">
    <path d="M97.1126 110.109L125.434 110.109L125.438 117.19L97.115 117.19L97.1126 110.109Z" />
    <path d="M97.1088 97.4443L125.43 97.4443L125.434 104.525L97.1111 104.525L97.1088 97.4443Z" />
    <path d="M51.5986 123.744L125.43 123.744L125.438 130.824L51.6009 130.824L51.5986 123.744Z" />
    <path d="M51.6 136.388L125.431 136.388L125.44 143.469L51.6024 143.469L51.6 136.388Z" />
    <path d="M78.9128 97.4454L82.9588 112.618L87.0049 97.4454L92.0625 97.4454L84.9819 118.687L79.9243 118.687L72.8437 97.4454L78.9128 97.4454Z" />
    <path d="M71.833 104.525L66.7743 104.526C65.7039 100.22 59.7782 99.5677 58.6833 104.525C58.0917 106.612 58.1596 109.315 58.6822 111.607C59.7177 116.652 65.9877 115.678 66.7744 111.607L71.8319 111.607C70.93 115.131 70.4539 116.521 65.7635 118.687C60.3738 120.194 55.6288 118.397 53.6258 112.617C50.915 103.061 56.66 97.4433 59.6942 97.4444C68.7509 95.0361 71.8324 101.49 71.833 104.525Z" />
    <path d="M113.42 85.5999H89.1484H89V82L89.5 81.5L93 75.5L90.5 64L92 61L91.5 60.5H89.1484H86.5L86 61L87.5 64L85 75.5L88.5 81.5L89 82V85.5999H88.875H64.8678C57.8327 83.9069 58.0944 78.3914 64.868 68.4041C74.8599 54.0164 105.108 55.0443 113.421 68.4041C120.248 77.8098 121.079 83.8228 113.42 85.5999Z" />
    <path d="M89.0228 55.972C77.9186 49.7318 75.9428 42.6232 74.8618 37.7648C74.5585 27.3009 78.0873 23.6149 89.0228 23.6036C98.9404 24.7618 101.295 27.9051 101.162 38.7764C101.394 41.3978 97.4618 52.2798 89.0228 55.972Z" />
    <path d="M88.012 0.657349C204.395 3.3617 209.331 173.814 88.012 176.145C-28.3731 173.114 -28.5408 6.57027 88.012 0.657349ZM40.5 20.3722L40.5 153.5L138.5 153.5V41H116L121.5 36H138.5L121.5 20.3722L121.5 36L116 41L116 20.3722L40.5 20.3722Z" />
  </symbol>

  <symbol id="language" viewBox="0 0 940 940" fill="currentColor">
    <path d="M85.9998 0.666504C38.6398 0.666504 0.666504 38.6398 0.666504 85.9998V683.333C0.666504 730.693 38.6398 768.667 85.9998 768.667H598L342 0.666504H85.9998ZM484.507 171.333L512.667 256.666H854V854H486.213L513.946 939.333H854C901.36 939.333 939.333 901.36 939.333 854V256.666C939.333 209.306 901.36 171.333 854 171.333H484.507ZM292.178 212.5L418.5 551H344.369L260 294.5L217 425.031H302.935L320.851 479.5H199L175.5 551H101.5L227.5 212.5H292.178ZM640.667 384.667V427.333H569.84L583.493 470H726C714.48 496.027 710.213 519.92 675.227 560.88C658.16 540.826 644.507 523.333 640.667 512.667H598C603.12 531.013 624.453 559.6 650.053 588.613C644.506 594.16 636.826 601.413 630 607.386L641.946 643.227C652.613 633.84 663.28 624.026 673.946 614.213C717.466 659.866 763.547 702.107 763.547 702.107L787.44 676.506C787.44 676.506 741.786 631.706 700.826 587.333C727.706 557.466 751.6 521.2 768.667 470H811.333V427.333H683.333V384.667H640.667Z" />
  </symbol>

  <symbol id="theme" viewBox="0 0 167 168" fill="currentColor">
    <path d="M166.5 91.0001C166.5 91.0001 170.01 115.123 133.5 131C116.238 134.334 105.7 131.966 89 122L89.0003 163.5C86.5122 169.21 80.2196 169.103 78.0003 163.5V131.5C21.8379 122.417 20.8873 45.9364 78.0003 38.0001V5.00006C81.8258 -0.954605 85.9601 0.0520844 89.0003 5.00006V47.0001C99.2692 40.839 106.999 36.2321 119.5 37.0001C130.052 36.834 131.105 43.0533 124 49.0001C110.676 60.7937 109.218 68.5955 116.5 87.0001C129.564 98.8246 143.087 99.8599 155.5 88.5001C160.609 83.208 164.426 83.6008 166.5 91.0001ZM78.0003 57.9943L78.0003 109.994C81.3455 115.637 86.7902 114.252 89.0003 109.994C89.0003 109.994 88.9086 78.6495 89.0003 57.9943C86.3511 53.6722 81.4254 53.0314 78.0003 57.9943Z" />
    <path d="M25.8154 90H3.81542C-1.13954 85.5021 -1.4021 82.1079 3.81542 79H25.8154C31.0165 82.0817 31.0938 86.0355 25.8154 90Z" />
    <path d="M39.2464 47.037L23.6968 31.4739C23.3765 24.7896 25.5921 22.2048 31.4784 23.6991L47.028 39.2622C48.524 45.1197 45.7817 47.9689 39.2464 47.037Z" />
    <path d="M23.8349 135.878L39.7057 120.642C46.3951 120.456 48.9351 122.722 47.3234 128.578L31.4526 143.813C25.5664 145.192 22.7725 142.393 23.8349 135.878Z" />
  </symbol>
</svg>
